<svg id="my-svg" width="100%" xmlns="http://www.w3.org/2000/svg" xmlns:xlink="http://www.w3.org/1999/xlink" class="statediagram" style="max-width: 1781.25px; background-color: white;" viewBox="0 0 1781.25 814" role="graphics-document document" aria-roledescription="stateDiagram"><style>#my-svg{font-family:Arial,Helvetica,sans-serif;font-size:16px;fill:#1c2b40;}@keyframes edge-animation-frame{from{stroke-dashoffset:0;}}@keyframes dash{to{stroke-dashoffset:0;}}#my-svg .edge-animation-slow{stroke-dasharray:9,5!important;stroke-dashoffset:900;animation:dash 50s linear infinite;stroke-linecap:round;}#my-svg .edge-animation-fast{stroke-dasharray:9,5!important;stroke-dashoffset:900;animation:dash 20s linear infinite;stroke-linecap:round;}#my-svg .error-icon{fill:#f7f8fa;}#my-svg .error-text{fill:#080705;stroke:#080705;}#my-svg .edge-thickness-normal{stroke-width:1px;}#my-svg .edge-thickness-thick{stroke-width:3.5px;}#my-svg .edge-pattern-solid{stroke-dasharray:0;}#my-svg .edge-thickness-invisible{stroke-width:0;fill:none;}#my-svg .edge-pattern-dashed{stroke-dasharray:3;}#my-svg .edge-pattern-dotted{stroke-dasharray:2;}#my-svg .marker{fill:#617086;stroke:#617086;}#my-svg .marker.cross{stroke:#617086;}#my-svg svg{font-family:Arial,Helvetica,sans-serif;font-size:16px;}#my-svg p{margin:0;}#my-svg defs [id$="-barbEnd"]{fill:#617086;stroke:#617086;}#my-svg g.stateGroup text{fill:#627da6;stroke:none;font-size:10px;}#my-svg g.stateGroup text{fill:#1c2b40;stroke:none;font-size:10px;}#my-svg g.stateGroup .state-title{font-weight:bolder;fill:#1c2b40;}#my-svg g.stateGroup rect{fill:#eef2fb;stroke:#627da6;}#my-svg g.stateGroup line{stroke:#617086;stroke-width:1;}#my-svg .transition{stroke:#617086;stroke-width:1;fill:none;}#my-svg .stateGroup .composit{fill:#f4f4f4;border-bottom:1px;}#my-svg .stateGroup .alt-composit{fill:#e0e0e0;border-bottom:1px;}#my-svg .state-note{stroke:#c8a970;fill:#fff5df;}#my-svg .state-note text{fill:#513c17;stroke:none;font-size:10px;}#my-svg .stateLabel .box{stroke:none;stroke-width:0;fill:#eef2fb;opacity:0.5;}#my-svg .edgeLabel .label rect{fill:#eef2fb;opacity:0.5;}#my-svg .edgeLabel{background-color:#f3effc;text-align:center;}#my-svg .edgeLabel p{background-color:#f3effc;}#my-svg .edgeLabel rect{opacity:0.5;background-color:#f3effc;fill:#f3effc;}#my-svg .edgeLabel .label text{fill:#1c2b40;}#my-svg .label div .edgeLabel{color:#1c2b40;}#my-svg .stateLabel text{fill:#1c2b40;font-size:10px;font-weight:bold;}#my-svg .node circle.state-start{fill:#617086;stroke:#617086;}#my-svg .node .fork-join{fill:#617086;stroke:#617086;}#my-svg .node circle.state-end{fill:#627da6;stroke:#f4f4f4;stroke-width:1.5;}#my-svg .end-state-inner{fill:#f4f4f4;stroke-width:1.5;}#my-svg .node rect{fill:#eef2fb;stroke:#627da6;stroke-width:1px;}#my-svg .node polygon{fill:#eef2fb;stroke:#627da6;stroke-width:1px;}#my-svg [id$="-barbEnd"]{fill:#617086;}#my-svg .statediagram-cluster rect{fill:#eef2fb;stroke:#627da6;stroke-width:1px;}#my-svg .cluster-label,#my-svg .nodeLabel{color:#1c2b40;}#my-svg .statediagram-cluster rect.outer{rx:5px;ry:5px;}#my-svg .statediagram-state .divider{stroke:#627da6;}#my-svg .statediagram-state .title-state{rx:5px;ry:5px;}#my-svg .statediagram-cluster.statediagram-cluster .inner{fill:#f4f4f4;}#my-svg .statediagram-cluster.statediagram-cluster-alt .inner{fill:#f7f8fa;}#my-svg .statediagram-cluster .inner{rx:0;ry:0;}#my-svg .statediagram-state rect.basic{rx:5px;ry:5px;}#my-svg .statediagram-state rect.divider{stroke-dasharray:10,10;fill:#f7f8fa;}#my-svg .note-edge{stroke-dasharray:5;}#my-svg .statediagram-note rect{fill:#fff5df;stroke:#c8a970;stroke-width:1px;rx:0;ry:0;}#my-svg .statediagram-note rect{fill:#fff5df;stroke:#c8a970;stroke-width:1px;rx:0;ry:0;}#my-svg .statediagram-note text{fill:#513c17;}#my-svg .statediagram-note .nodeLabel{color:#513c17;}#my-svg .statediagram .edgeLabel{color:red;}#my-svg [id$="-dependencyStart"],#my-svg [id$="-dependencyEnd"]{fill:#617086;stroke:#617086;stroke-width:1;}#my-svg .statediagramTitleText{text-anchor:middle;font-size:18px;fill:#1c2b40;}#my-svg [data-look="neo"].statediagram-cluster rect{fill:#eef2fb;stroke:url(#my-svg-gradient);stroke-width:1;}#my-svg [data-look="neo"].statediagram-cluster rect.outer{rx:5px;ry:5px;filter:drop-shadow( 1px 2px 2px rgba(185,185,185,1));}#my-svg .node .neo-node{stroke:#627da6;}#my-svg [data-look="neo"].node rect,#my-svg [data-look="neo"].cluster rect,#my-svg [data-look="neo"].node polygon{stroke:url(#my-svg-gradient);filter:drop-shadow( 1px 2px 2px rgba(185,185,185,1));}#my-svg [data-look="neo"].swimlane.cluster rect{filter:none;}#my-svg [data-look="neo"].node path{stroke:url(#my-svg-gradient);stroke-width:1px;}#my-svg [data-look="neo"].node .outer-path{filter:drop-shadow( 1px 2px 2px rgba(185,185,185,1));}#my-svg [data-look="neo"].node .neo-line path{stroke:#627da6;filter:none;}#my-svg [data-look="neo"].node circle{stroke:url(#my-svg-gradient);filter:drop-shadow( 1px 2px 2px rgba(185,185,185,1));}#my-svg [data-look="neo"].node circle .state-start{fill:#000000;}#my-svg [data-look="neo"].icon-shape .icon{fill:url(#my-svg-gradient);filter:drop-shadow( 1px 2px 2px rgba(185,185,185,1));}#my-svg [data-look="neo"].icon-shape .icon-neo path{stroke:url(#my-svg-gradient);filter:drop-shadow( 1px 2px 2px rgba(185,185,185,1));}#my-svg :root{--mermaid-font-family:"trebuchet ms",verdana,arial,sans-serif;}</style><g><defs><marker id="my-svg_stateDiagram-barbEnd" refX="19" refY="7" markerWidth="20" markerHeight="14" markerUnits="userSpaceOnUse" orient="auto"><path d="M 19,7 L9,13 L14,7 L9,1 Z"/></marker></defs><g class="root"><g class="clusters"><g class="note-cluster" id="my-svg-state-previewed----parent-12"><rect x="973.359375" y="8" width="286" height="202" fill="none"/></g><g class="note-cluster" id="my-svg-state-unknown_delivery----parent-13"><rect x="1487.25" y="580" width="286" height="226" fill="none"/></g></g><g class="edgePaths"><path d="M42.125,254L66.313,254C90.5,254,138.875,254,183.896,254C228.917,254,270.583,254,291.417,254L312.25,254" id="my-svg-edge0" class="edge-thickness-normal edge-pattern-solid transition" style="fill:none;;;fill:none" data-edge="true" data-et="edge" data-id="edge0" data-points="W3sieCI6NDIuMTI1LCJ5IjoyNTR9LHsieCI6MTg3LjI1LCJ5IjoyNTR9LHsieCI6MzEyLjI1LCJ5IjoyNTR9XQ==" data-look="classic" marker-end="url(#my-svg_stateDiagram-barbEnd)"/><path d="M370.945,234L394.09,213.167C417.234,192.333,463.523,150.667,507.436,129.833C551.349,109,592.885,109,613.654,109L634.422,109" id="my-svg-edge1" class="edge-thickness-normal edge-pattern-solid transition" style="fill:none;;;fill:none" data-edge="true" data-et="edge" data-id="edge1" data-points="W3sieCI6MzcwLjk0NTMxMjUsInkiOjIzNH0seyJ4Ijo1MDkuODEyNSwieSI6MTA5fSx7IngiOjYzNC40MjE4NzUsInkiOjEwOX1d" data-look="classic" marker-end="url(#my-svg_stateDiagram-barbEnd)"/><path d="M385.203,241.546L405.971,234.455C426.74,227.364,468.276,213.182,510.553,206.091C552.831,199,595.849,199,617.358,199L638.867,199" id="my-svg-edge2" class="edge-thickness-normal edge-pattern-solid transition" style="fill:none;;;fill:none" data-edge="true" data-et="edge" data-id="edge2" data-points="W3sieCI6Mzg1LjIwMzEyNSwieSI6MjQxLjU0NTcxMDI2NzIyOTI1fSx7IngiOjUwOS44MTI1LCJ5IjoxOTl9LHsieCI6NjM4Ljg2NzE4NzUsInkiOjE5OX1d" data-look="classic" marker-end="url(#my-svg_stateDiagram-barbEnd)"/><path d="M385.203,254L405.971,254C426.74,254,468.276,254,517.224,254C566.172,254,622.531,254,678.956,254C735.38,254,791.87,254,840.948,254C890.026,254,931.693,254,976.359,254C1021.026,254,1068.693,254,1116.359,254C1164.026,254,1211.693,254,1254.517,254C1297.341,254,1335.323,254,1373.305,254C1411.286,254,1449.268,254,1487.572,259.267C1525.875,264.534,1564.5,275.068,1583.813,280.335L1603.125,285.602" id="my-svg-edge3" class="edge-thickness-normal edge-pattern-solid transition" style="fill:none;;;fill:none" data-edge="true" data-et="edge" data-id="edge3" data-points="W3sieCI6Mzg1LjIwMzEyNSwieSI6MjU0fSx7IngiOjUwOS44MTI1LCJ5IjoyNTR9LHsieCI6Njc4Ljg5MDYyNSwieSI6MjU0fSx7IngiOjg0OC4zNTkzNzUsInkiOjI1NH0seyJ4Ijo5NzMuMzU5Mzc1LCJ5IjoyNTR9LHsieCI6MTExNi4zNTkzNzUsInkiOjI1NH0seyJ4IjoxMjU5LjM1OTM3NSwieSI6MjU0fSx7IngiOjEzNzMuMzA0Njg3NSwieSI6MjU0fSx7IngiOjE0ODcuMjUsInkiOjI1NH0seyJ4IjoxNjAzLjEyNSwieSI6Mjg1LjYwMjI3MjcyNzI3Mjc1fV0=" data-look="classic" marker-end="url(#my-svg_stateDiagram-barbEnd)"/><path d="M366.526,274L390.407,300.833C414.288,327.667,462.05,381.333,508.107,408.167C554.164,435,598.516,435,620.691,435L642.867,435" id="my-svg-edge4" class="edge-thickness-normal edge-pattern-solid transition" style="fill:none;;;fill:none" data-edge="true" data-et="edge" data-id="edge4" data-points="W3sieCI6MzY2LjUyNjExMzYwNDk3MjM1LCJ5IjoyNzR9LHsieCI6NTA5LjgxMjUsInkiOjQzNX0seyJ4Ijo2NDIuODY3MTg3NSwieSI6NDM1fV0=" data-look="classic" marker-end="url(#my-svg_stateDiagram-barbEnd)"/><path d="M714.914,435L737.155,435C759.396,435,803.878,435,846.952,435C890.026,435,931.693,435,972.505,435C1013.318,435,1053.276,435,1073.255,435L1093.234,435" id="my-svg-edge5" class="edge-thickness-normal edge-pattern-solid transition" style="fill:none;;;fill:none" data-edge="true" data-et="edge" data-id="edge5" data-points="W3sieCI6NzE0LjkxNDA2MjUsInkiOjQzNX0seyJ4Ijo4NDguMzU5Mzc1LCJ5Ijo0MzV9LHsieCI6OTczLjM1OTM3NSwieSI6NDM1fSx7IngiOjEwOTMuMjM0Mzc1LCJ5Ijo0MzV9XQ==" data-look="classic" marker-end="url(#my-svg_stateDiagram-barbEnd)"/><path d="M703.631,415L727.752,395.5C751.874,376,800.116,337,845.071,317.5C890.026,298,931.693,298,976.359,298C1021.026,298,1068.693,298,1116.359,298C1164.026,298,1211.693,298,1254.517,298C1297.341,298,1335.323,298,1373.305,298C1411.286,298,1449.268,298,1487.572,297.325C1525.875,296.649,1564.5,295.299,1583.813,294.624L1603.125,293.948" id="my-svg-edge6" class="edge-thickness-normal edge-pattern-solid transition" style="fill:none;;;fill:none" data-edge="true" data-et="edge" data-id="edge6" data-points="W3sieCI6NzAzLjYzMDU4ODUwMzY0OTYsInkiOjQxNX0seyJ4Ijo4NDguMzU5Mzc1LCJ5IjoyOTh9LHsieCI6OTczLjM1OTM3NSwieSI6Mjk4fSx7IngiOjExMTYuMzU5Mzc1LCJ5IjoyOTh9LHsieCI6MTI1OS4zNTkzNzUsInkiOjI5OH0seyJ4IjoxMzczLjMwNDY4NzUsInkiOjI5OH0seyJ4IjoxNDg3LjI1LCJ5IjoyOTh9LHsieCI6MTYwMy4xMjUsInkiOjI5My45NDg0MjY1NzM0MjY1Nn1d" data-look="classic" marker-end="url(#my-svg_stateDiagram-barbEnd)"/><path d="M692.028,455L718.083,494.667C744.138,534.333,796.249,613.667,843.137,653.333C890.026,693,931.693,693,964.353,693C997.013,693,1020.667,693,1032.493,693L1044.32,693" id="my-svg-edge7" class="edge-thickness-normal edge-pattern-solid transition" style="fill:none;;;fill:none" data-edge="true" data-et="edge" data-id="edge7" data-points="W3sieCI6NjkyLjAyNzczNzQwMzEwMDgsInkiOjQ1NX0seyJ4Ijo4NDguMzU5Mzc1LCJ5Ijo2OTN9LHsieCI6OTczLjM1OTM3NSwieSI6NjkzfSx7IngiOjEwNDQuMzIwMzEyNSwieSI6NjkzfV0=" data-look="classic" marker-end="url(#my-svg_stateDiagram-barbEnd)"/><path d="M1603.125,306.088L1583.813,315.407C1564.5,324.726,1525.875,343.363,1487.572,352.681C1449.268,362,1411.286,362,1373.305,362C1335.323,362,1297.341,362,1254.517,362C1211.693,362,1164.026,362,1116.359,362C1068.693,362,1021.026,362,976.359,362C931.693,362,890.026,362,840.948,362C791.87,362,735.38,362,678.956,362C622.531,362,566.172,362,516.116,347.333C466.061,332.667,422.309,303.333,400.433,288.667L378.557,274" id="my-svg-edge8" class="edge-thickness-normal edge-pattern-solid transition" style="fill:none;;;fill:none" data-edge="true" data-et="edge" data-id="edge8" data-points="W3sieCI6MTYwMy4xMjUsInkiOjMwNi4wODgyODY3MTMyODY3fSx7IngiOjE0ODcuMjUsInkiOjM2Mn0seyJ4IjoxMzczLjMwNDY4NzUsInkiOjM2Mn0seyJ4IjoxMjU5LjM1OTM3NSwieSI6MzYyfSx7IngiOjExMTYuMzU5Mzc1LCJ5IjozNjJ9LHsieCI6OTczLjM1OTM3NSwieSI6MzYyfSx7IngiOjg0OC4zNTkzNzUsInkiOjM2Mn0seyJ4Ijo2NzguODkwNjI1LCJ5IjozNjJ9LHsieCI6NTA5LjgxMjUsInkiOjM2Mn0seyJ4IjozNzguNTU3MjkxNjY2NjY2NywieSI6Mjc0fV0=" data-look="classic" marker-end="url(#my-svg_stateDiagram-barbEnd)"/><path d="M1139.484,435L1159.464,435C1179.443,435,1219.401,435,1258.371,435C1297.341,435,1335.323,435,1373.305,435C1411.286,435,1449.268,435,1485.348,435C1521.427,435,1555.604,435,1572.693,435L1589.781,435" id="my-svg-edge9" class="edge-thickness-normal edge-pattern-solid transition" style="fill:none;;;fill:none" data-edge="true" data-et="edge" data-id="edge9" data-points="W3sieCI6MTEzOS40ODQzNzUsInkiOjQzNX0seyJ4IjoxMjU5LjM1OTM3NSwieSI6NDM1fSx7IngiOjEzNzMuMzA0Njg3NSwieSI6NDM1fSx7IngiOjE0ODcuMjUsInkiOjQzNX0seyJ4IjoxNTg5Ljc4MTI1LCJ5Ijo0MzV9XQ==" data-look="classic" marker-end="url(#my-svg_stateDiagram-barbEnd)"/><path d="M1139.484,449.554L1159.464,462.128C1179.443,474.703,1219.401,499.851,1258.371,512.426C1297.341,525,1335.323,525,1373.305,525C1411.286,525,1449.268,525,1485.643,525C1522.018,525,1556.786,525,1574.171,525L1591.555,525" id="my-svg-edge10" class="edge-thickness-normal edge-pattern-solid transition" style="fill:none;;;fill:none" data-edge="true" data-et="edge" data-id="edge10" data-points="W3sieCI6MTEzOS40ODQzNzUsInkiOjQ0OS41NTQxOTU4MDQxOTU4fSx7IngiOjEyNTkuMzU5Mzc1LCJ5Ijo1MjV9LHsieCI6MTM3My4zMDQ2ODc1LCJ5Ijo1MjV9LHsieCI6MTQ4Ny4yNSwieSI6NTI1fSx7IngiOjE1OTEuNTU0Njg3NSwieSI6NTI1fV0=" data-look="classic" marker-end="url(#my-svg_stateDiagram-barbEnd)"/><path d="M1139.484,418.02L1159.464,403.35C1179.443,388.68,1219.401,359.34,1258.371,344.67C1297.341,330,1335.323,330,1373.305,330C1411.286,330,1449.268,330,1487.572,325.003C1525.875,320.006,1564.5,310.012,1583.813,305.015L1603.125,300.018" id="my-svg-edge11" class="edge-thickness-normal edge-pattern-solid transition" style="fill:none;;;fill:none" data-edge="true" data-et="edge" data-id="edge11" data-points="W3sieCI6MTEzOS40ODQzNzUsInkiOjQxOC4wMjAxMDQ4OTUxMDQ5fSx7IngiOjEyNTkuMzU5Mzc1LCJ5IjozMzB9LHsieCI6MTM3My4zMDQ2ODc1LCJ5IjozMzB9LHsieCI6MTQ4Ny4yNSwieSI6MzMwfSx7IngiOjE2MDMuMTI1LCJ5IjozMDAuMDE4MzU2NjQzMzU2NjR9XQ==" data-look="classic" marker-end="url(#my-svg_stateDiagram-barbEnd)"/><path d="M723.359,109L744.193,109C765.026,109,806.693,109,848.359,109C890.026,109,931.693,109,956.693,109C981.693,109,990.026,109,994.193,109L998.359,109" id="my-svg-previewed-previewed----note-12" class="edge-thickness-normal edge-pattern-solid transition note-edge" style="fill:none;;;fill:none" data-edge="true" data-et="edge" data-id="previewed-previewed----note-12" data-points="W3sieCI6NzIzLjM1OTM3NSwieSI6MTA5fSx7IngiOjg0OC4zNTkzNzUsInkiOjEwOX0seyJ4Ijo5NzMuMzU5Mzc1LCJ5IjoxMDl9LHsieCI6OTk4LjM1OTM3NSwieSI6MTA5fV0=" data-look="classic"/><path d="M1188.398,693L1200.225,693C1212.052,693,1235.706,693,1266.523,693C1297.341,693,1335.323,693,1373.305,693C1411.286,693,1449.268,693,1472.426,693C1495.583,693,1503.917,693,1508.083,693L1512.25,693" id="my-svg-unknown_delivery-unknown_delivery----note-13" class="edge-thickness-normal edge-pattern-solid transition note-edge" style="fill:none;;;fill:none" data-edge="true" data-et="edge" data-id="unknown_delivery-unknown_delivery----note-13" data-points="W3sieCI6MTE4OC4zOTg0Mzc1LCJ5Ijo2OTN9LHsieCI6MTI1OS4zNTkzNzUsInkiOjY5M30seyJ4IjoxMzczLjMwNDY4NzUsInkiOjY5M30seyJ4IjoxNDg3LjI1LCJ5Ijo2OTN9LHsieCI6MTUxMi4yNSwieSI6NjkzfV0=" data-look="classic"/></g><g class="edgeLabels"><g class="edgeLabel" transform="translate(187.25, 254)"><g class="label" data-id="edge0" transform="translate(-100, -24)"><foreignObject width="200" height="48"><div xmlns="http://www.w3.org/1999/xhtml" class="labelBkg" style="display: table; white-space: break-spaces; line-height: 1.5; max-width: 200px; text-align: center; width: 200px;"><span class="edgeLabel"><p>lawyer review or finalization notice</p></span></div></foreignObject></g></g><g class="edgeLabel" transform="translate(509.8125, 109)"><g class="label" data-id="edge1" transform="translate(-99.609375, -12)"><foreignObject width="199.21875" height="24"><div xmlns="http://www.w3.org/1999/xhtml" class="labelBkg" style="display: table-cell; white-space: nowrap; line-height: 1.5; max-width: 200px; text-align: center;"><span class="edgeLabel"><p>public demo / preview mode</p></span></div></foreignObject></g></g><g class="edgeLabel" transform="translate(509.8125, 199)"><g class="label" data-id="edge2" transform="translate(-64.046875, -12)"><foreignObject width="128.09375" height="24"><div xmlns="http://www.w3.org/1999/xhtml" class="labelBkg" style="display: table-cell; white-space: nowrap; line-height: 1.5; max-width: 200px; text-align: center;"><span class="edgeLabel"><p>packet invalidated</p></span></div></foreignObject></g></g><g class="edgeLabel" transform="translate(848.359375, 254)"><g class="label" data-id="edge3" transform="translate(-100, -24)"><foreignObject width="200" height="48"><div xmlns="http://www.w3.org/1999/xhtml" class="labelBkg" style="display: table; white-space: break-spaces; line-height: 1.5; max-width: 200px; text-align: center; width: 200px;"><span class="edgeLabel"><p>live delivery not authorized or configured</p></span></div></foreignObject></g></g><g class="edgeLabel" transform="translate(509.8125, 435)"><g class="label" data-id="edge4" transform="translate(-53.8046875, -12)"><foreignObject width="107.609375" height="24"><div xmlns="http://www.w3.org/1999/xhtml" class="labelBkg" style="display: table-cell; white-space: nowrap; line-height: 1.5; max-width: 200px; text-align: center;"><span class="edgeLabel"><p>private delivery</p></span></div></foreignObject></g></g><g class="edgeLabel" transform="translate(848.359375, 435)"><g class="label" data-id="edge5" transform="translate(-58.6953125, -12)"><foreignObject width="117.390625" height="24"><div xmlns="http://www.w3.org/1999/xhtml" class="labelBkg" style="display: table-cell; white-space: nowrap; line-height: 1.5; max-width: 200px; text-align: center;"><span class="edgeLabel"><p>provider accepts</p></span></div></foreignObject></g></g><g class="edgeLabel" transform="translate(1116.359375, 298)"><g class="label" data-id="edge6" transform="translate(-64.0390625, -12)"><foreignObject width="128.078125" height="24"><div xmlns="http://www.w3.org/1999/xhtml" class="labelBkg" style="display: table-cell; white-space: nowrap; line-height: 1.5; max-width: 200px; text-align: center;"><span class="edgeLabel"><p>definitive rejection</p></span></div></foreignObject></g></g><g class="edgeLabel" transform="translate(848.359375, 693)"><g class="label" data-id="edge7" transform="translate(-85.3828125, -12)"><foreignObject width="170.765625" height="24"><div xmlns="http://www.w3.org/1999/xhtml" class="labelBkg" style="display: table-cell; white-space: nowrap; line-height: 1.5; max-width: 200px; text-align: center;"><span class="edgeLabel"><p>timeout or expired lease</p></span></div></foreignObject></g></g><g class="edgeLabel" transform="translate(848.359375, 362)"><g class="label" data-id="edge8" transform="translate(-100, -24)"><foreignObject width="200" height="48"><div xmlns="http://www.w3.org/1999/xhtml" class="labelBkg" style="display: table; white-space: break-spaces; line-height: 1.5; max-width: 200px; text-align: center; width: 200px;"><span class="edgeLabel"><p>explicit retry within delivery budget</p></span></div></foreignObject></g></g><g class="edgeLabel" transform="translate(1373.3046875, 435)"><g class="label" data-id="edge9" transform="translate(-88.9453125, -12)"><foreignObject width="177.890625" height="24"><div xmlns="http://www.w3.org/1999/xhtml" class="labelBkg" style="display: table-cell; white-space: nowrap; line-height: 1.5; max-width: 200px; text-align: center;"><span class="edgeLabel"><p>signed provider webhook</p></span></div></foreignObject></g></g><g class="edgeLabel" transform="translate(1373.3046875, 525)"><g class="label" data-id="edge10" transform="translate(-88.9453125, -12)"><foreignObject width="177.890625" height="24"><div xmlns="http://www.w3.org/1999/xhtml" class="labelBkg" style="display: table-cell; white-space: nowrap; line-height: 1.5; max-width: 200px; text-align: center;"><span class="edgeLabel"><p>signed provider webhook</p></span></div></foreignObject></g></g><g class="edgeLabel" transform="translate(1373.3046875, 330)"><g class="label" data-id="edge11" transform="translate(-88.9453125, -12)"><foreignObject width="177.890625" height="24"><div xmlns="http://www.w3.org/1999/xhtml" class="labelBkg" style="display: table-cell; white-space: nowrap; line-height: 1.5; max-width: 200px; text-align: center;"><span class="edgeLabel"><p>signed provider webhook</p></span></div></foreignObject></g></g><g class="edgeLabel"><g class="label" data-id="previewed-previewed----note-12" transform="translate(0, 0)"><foreignObject width="0" height="0"><div xmlns="http://www.w3.org/1999/xhtml" class="labelBkg" style="display: table-cell; white-space: nowrap; line-height: 1.5; max-width: 200px; text-align: center;"><span class="edgeLabel"></span></div></foreignObject></g></g><g class="edgeLabel"><g class="label" data-id="unknown_delivery-unknown_delivery----note-13" transform="translate(0, 0)"><foreignObject width="0" height="0"><div xmlns="http://www.w3.org/1999/xhtml" class="labelBkg" style="display: table-cell; white-space: nowrap; line-height: 1.5; max-width: 200px; text-align: center;"><span class="edgeLabel"></span></div></foreignObject></g></g></g><g class="nodes"><g class="node default" id="my-svg-state-root_start-0" data-look="classic" transform="translate(35.125, 254)"><circle class="state-start" r="7" width="14" height="14"/></g><g class="node  statediagram-state" id="my-svg-state-pending-8" data-look="classic" transform="translate(348.7265625, 254)"><rect class="basic label-container" style="" rx="5" ry="5" x="-36.4765625" y="-20" width="72.953125" height="40"/><g class="label" style="" transform="translate(-28.4765625, -12)"><rect/><foreignObject width="56.953125" height="24"><div xmlns="http://www.w3.org/1999/xhtml" style="display: table-cell; white-space: nowrap; line-height: 1.5; max-width: 200px; text-align: center;"><span class="nodeLabel markdown-node-label"><p>pending</p></span></div></foreignObject></g></g><g class="node  statediagram-state" id="my-svg-state-previewed-12" data-look="classic" transform="translate(678.890625, 109)"><rect class="basic label-container" style="" rx="5" ry="5" x="-44.46875" y="-20" width="88.9375" height="40"/><g class="label" style="" transform="translate(-36.46875, -12)"><rect/><foreignObject width="72.9375" height="24"><div xmlns="http://www.w3.org/1999/xhtml" style="display: table-cell; white-space: nowrap; line-height: 1.5; max-width: 200px; text-align: center;"><span class="nodeLabel markdown-node-label"><p>previewed</p></span></div></foreignObject></g></g><g class="node  statediagram-state" id="my-svg-state-canceled-2" data-look="classic" transform="translate(678.890625, 199)"><rect class="basic label-container" style="" rx="5" ry="5" x="-40.0234375" y="-20" width="80.046875" height="40"/><g class="label" style="" transform="translate(-32.0234375, -12)"><rect/><foreignObject width="64.046875" height="24"><div xmlns="http://www.w3.org/1999/xhtml" style="display: table-cell; white-space: nowrap; line-height: 1.5; max-width: 200px; text-align: center;"><span class="nodeLabel markdown-node-label"><p>canceled</p></span></div></foreignObject></g></g><g class="node  statediagram-state" id="my-svg-state-failed-11" data-look="classic" transform="translate(1630.25, 293)"><rect class="basic label-container" style="" rx="5" ry="5" x="-27.125" y="-20" width="54.25" height="40"/><g class="label" style="" transform="translate(-19.125, -12)"><rect/><foreignObject width="38.25" height="24"><div xmlns="http://www.w3.org/1999/xhtml" style="display: table-cell; white-space: nowrap; line-height: 1.5; max-width: 200px; text-align: center;"><span class="nodeLabel markdown-node-label"><p>failed</p></span></div></foreignObject></g></g><g class="node  statediagram-state" id="my-svg-state-sending-7" data-look="classic" transform="translate(678.890625, 435)"><rect class="basic label-container" style="" rx="5" ry="5" x="-36.0234375" y="-20" width="72.046875" height="40"/><g class="label" style="" transform="translate(-28.0234375, -12)"><rect/><foreignObject width="56.046875" height="24"><div xmlns="http://www.w3.org/1999/xhtml" style="display: table-cell; white-space: nowrap; line-height: 1.5; max-width: 200px; text-align: center;"><span class="nodeLabel markdown-node-label"><p>sending</p></span></div></foreignObject></g></g><g class="node  statediagram-state" id="my-svg-state-;-5" data-look="classic" transform="translate(35.125, 331)"><rect class="basic label-container" style="" rx="5" ry="5" x="-10.2265625" y="-20" width="20.453125" height="40"/><g class="label" style="" transform="translate(-2.2265625, -12)"><rect/><foreignObject width="4.453125" height="24"><div xmlns="http://www.w3.org/1999/xhtml" style="display: table-cell; white-space: nowrap; line-height: 1.5; max-width: 200px; text-align: center;"><span class="nodeLabel markdown-node-label"><p>;</p></span></div></foreignObject></g></g><g class="node  statediagram-state" id="my-svg-state-claim-5" data-look="classic" transform="translate(35.125, 421)"><rect class="basic label-container" style="" rx="5" ry="5" x="-26.671875" y="-20" width="53.34375" height="40"/><g class="label" style="" transform="translate(-18.671875, -12)"><rect/><foreignObject width="37.34375" height="24"><div xmlns="http://www.w3.org/1999/xhtml" style="display: table-cell; white-space: nowrap; line-height: 1.5; max-width: 200px; text-align: center;"><span class="nodeLabel markdown-node-label"><p>claim</p></span></div></foreignObject></g></g><g class="node  statediagram-state" id="my-svg-state-lease-5" data-look="classic" transform="translate(35.125, 511)"><rect class="basic label-container" style="" rx="5" ry="5" x="-27.125" y="-20" width="54.25" height="40"/><g class="label" style="" transform="translate(-19.125, -12)"><rect/><foreignObject width="38.25" height="24"><div xmlns="http://www.w3.org/1999/xhtml" style="display: table-cell; white-space: nowrap; line-height: 1.5; max-width: 200px; text-align: center;"><span class="nodeLabel markdown-node-label"><p>lease</p></span></div></foreignObject></g></g><g class="node  statediagram-state" id="my-svg-state-sent-11" data-look="classic" transform="translate(1116.359375, 435)"><rect class="basic label-container" style="" rx="5" ry="5" x="-23.125" y="-20" width="46.25" height="40"/><g class="label" style="" transform="translate(-15.125, -12)"><rect/><foreignObject width="30.25" height="24"><div xmlns="http://www.w3.org/1999/xhtml" style="display: table-cell; white-space: nowrap; line-height: 1.5; max-width: 200px; text-align: center;"><span class="nodeLabel markdown-node-label"><p>sent</p></span></div></foreignObject></g></g><g class="node  statediagram-state" id="my-svg-state-unknown_delivery-13" data-look="classic" transform="translate(1116.359375, 693)"><rect class="basic label-container" style="" rx="5" ry="5" x="-72.0390625" y="-20" width="144.078125" height="40"/><g class="label" style="" transform="translate(-64.0390625, -12)"><rect/><foreignObject width="128.078125" height="24"><div xmlns="http://www.w3.org/1999/xhtml" style="display: table-cell; white-space: nowrap; line-height: 1.5; max-width: 200px; text-align: center;"><span class="nodeLabel markdown-node-label"><p>unknown_delivery</p></span></div></foreignObject></g></g><g class="node  statediagram-state" id="my-svg-state-delivered-9" data-look="classic" transform="translate(1630.25, 435)"><rect class="basic label-container" style="" rx="5" ry="5" x="-40.46875" y="-20" width="80.9375" height="40"/><g class="label" style="" transform="translate(-32.46875, -12)"><rect/><foreignObject width="64.9375" height="24"><div xmlns="http://www.w3.org/1999/xhtml" style="display: table-cell; white-space: nowrap; line-height: 1.5; max-width: 200px; text-align: center;"><span class="nodeLabel markdown-node-label"><p>delivered</p></span></div></foreignObject></g></g><g class="node  statediagram-state" id="my-svg-state-bounced-10" data-look="classic" transform="translate(1630.25, 525)"><rect class="basic label-container" style="" rx="5" ry="5" x="-38.6953125" y="-20" width="77.390625" height="40"/><g class="label" style="" transform="translate(-30.6953125, -12)"><rect/><foreignObject width="61.390625" height="24"><div xmlns="http://www.w3.org/1999/xhtml" style="display: table-cell; white-space: nowrap; line-height: 1.5; max-width: 200px; text-align: center;"><span class="nodeLabel markdown-node-label"><p>bounced</p></span></div></foreignObject></g></g><g class="node statediagram-note" id="my-svg-state-previewed----note-12" data-look="classic" transform="translate(1116.359375, 109)"><g class="basic label-container outer-path"><path d="M-118 -66 L118 -66 L118 66 L-118 66" stroke="none" stroke-width="0" fill="#fff5df" style=""/><path d="M-118 -66 C-61.679960250557684 -66, -5.3599205011153686 -66, 118 -66 M-118 -66 C-29.333586991071215 -66, 59.33282601785757 -66, 118 -66 M118 -66 C118 -18.53693733394004, 118 28.926125332119923, 118 66 M118 -66 C118 -22.131063105904126, 118 21.73787378819175, 118 66 M118 66 C41.026358389884805 66, -35.94728322023039 66, -118 66 M118 66 C35.775589785365625 66, -46.44882042926875 66, -118 66 M-118 66 C-118 15.592578255630407, -118 -34.814843488739186, -118 -66 M-118 66 C-118 16.012500438185512, -118 -33.974999123628976, -118 -66" stroke="#c8a970" stroke-width="1.3" fill="none" stroke-dasharray="0 0" style=""/></g><g class="label noteLabel" style="" transform="translate(-100, -48)"><rect/><foreignObject width="200" height="96"><div xmlns="http://www.w3.org/1999/xhtml" style="display: table; white-space: break-spaces; line-height: 1.5; max-width: 200px; text-align: center; width: 200px;"><span class="nodeLabel markdown-node-label"><p>Current public deployment stops here.<br />No email is sent. No approval is granted.</p></span></div></foreignObject></g></g><g class="node statediagram-note" id="my-svg-state-unknown_delivery----note-13" data-look="classic" transform="translate(1630.25, 693)"><g class="basic label-container outer-path"><path d="M-118 -78 L118 -78 L118 78 L-118 78" stroke="none" stroke-width="0" fill="#fff5df" style=""/><path d="M-118 -78 C-32.052176921712714 -78, 53.89564615657457 -78, 118 -78 M-118 -78 C-49.696943549514074 -78, 18.60611290097185 -78, 118 -78 M118 -78 C118 -21.327229712848812, 118 35.345540574302376, 118 78 M118 -78 C118 -19.26464081833774, 118 39.47071836332452, 118 78 M118 78 C29.220767705953918 78, -59.558464588092164 78, -118 78 M118 78 C37.831305297901125 78, -42.33738940419775 78, -118 78 M-118 78 C-118 25.952386248865707, -118 -26.095227502268585, -118 -78 M-118 78 C-118 16.885838430979383, -118 -44.22832313804123, -118 -78" stroke="#c8a970" stroke-width="1.3" fill="none" stroke-dasharray="0 0" style=""/></g><g class="label noteLabel" style="" transform="translate(-100, -60)"><rect/><foreignObject width="200" height="120"><div xmlns="http://www.w3.org/1999/xhtml" style="display: table; white-space: break-spaces; line-height: 1.5; max-width: 200px; text-align: center; width: 200px;"><span class="nodeLabel markdown-node-label"><p>Retry blocked until provider outcome is reconciled.<br />Webhooks are retained and matched by provider ID.</p></span></div></foreignObject></g></g></g></g></g><defs><filter id="my-svg-drop-shadow" height="130%" width="130%"><feDropShadow dx="4" dy="4" stdDeviation="0" flood-opacity="0.06" flood-color="#000000"/></filter></defs><defs><filter id="my-svg-drop-shadow-small" height="150%" width="150%"><feDropShadow dx="2" dy="2" stdDeviation="0" flood-opacity="0.06" flood-color="#000000"/></filter></defs><linearGradient id="my-svg-gradient" gradientUnits="objectBoundingBox" x1="0%" y1="0%" x2="100%" y2="0%"><stop offset="0%" stop-color="#627da6" stop-opacity="1"/><stop offset="100%" stop-color="hsl(258.4615384615, 28.4210526316%, 86.2745098039%)" stop-opacity="1"/></linearGradient></svg>