<svg id="kiara_04d_schema_harness_mmd" width="1191.140625" xmlns="http://www.w3.org/2000/svg" class="erDiagram" height="797.5" viewBox="0 -47 1191.140625 797.5" role="graphics-document document" aria-roledescription="er"><style>#kiara_04d_schema_harness_mmd{font-family:Arial,sans-serif;font-size:16px;fill:#142a43;}@keyframes edge-animation-frame{from{stroke-dashoffset:0;}}@keyframes dash{to{stroke-dashoffset:0;}}#kiara_04d_schema_harness_mmd .edge-animation-slow{stroke-dasharray:9,5!important;stroke-dashoffset:900;animation:dash 50s linear infinite;stroke-linecap:round;}#kiara_04d_schema_harness_mmd .edge-animation-fast{stroke-dasharray:9,5!important;stroke-dashoffset:900;animation:dash 20s linear infinite;stroke-linecap:round;}#kiara_04d_schema_harness_mmd .error-icon{fill:#f7f9fc;}#kiara_04d_schema_harness_mmd .error-text{fill:#080603;stroke:#080603;}#kiara_04d_schema_harness_mmd .edge-thickness-normal{stroke-width:1px;}#kiara_04d_schema_harness_mmd .edge-thickness-thick{stroke-width:3.5px;}#kiara_04d_schema_harness_mmd .edge-pattern-solid{stroke-dasharray:0;}#kiara_04d_schema_harness_mmd .edge-thickness-invisible{stroke-width:0;fill:none;}#kiara_04d_schema_harness_mmd .edge-pattern-dashed{stroke-dasharray:3;}#kiara_04d_schema_harness_mmd .edge-pattern-dotted{stroke-dasharray:2;}#kiara_04d_schema_harness_mmd .marker{fill:#52677d;stroke:#52677d;}#kiara_04d_schema_harness_mmd .marker.cross{stroke:#52677d;}#kiara_04d_schema_harness_mmd svg{font-family:Arial,sans-serif;font-size:16px;}#kiara_04d_schema_harness_mmd p{margin:0;}#kiara_04d_schema_harness_mmd .entityBox{fill:#eef4fb;stroke:#527398;}#kiara_04d_schema_harness_mmd .relationshipLabelBox{fill:#f7f9fc;opacity:0.7;background-color:#f7f9fc;}#kiara_04d_schema_harness_mmd .relationshipLabelBox rect{opacity:0.5;}#kiara_04d_schema_harness_mmd .labelBkg{background-color:rgba(247, 249, 252, 0.5);}#kiara_04d_schema_harness_mmd .edgeLabel{background-color:#f2f5f8;}#kiara_04d_schema_harness_mmd .edgeLabel .label rect{fill:#f2f5f8;}#kiara_04d_schema_harness_mmd .edgeLabel .label text{fill:#142a43;}#kiara_04d_schema_harness_mmd .edgeLabel .label{fill:#527398;font-size:14px;}#kiara_04d_schema_harness_mmd .label{font-family:Arial,sans-serif;color:#142a43;}#kiara_04d_schema_harness_mmd .edge-pattern-dashed{stroke-dasharray:8,8;}#kiara_04d_schema_harness_mmd .node rect,#kiara_04d_schema_harness_mmd .node circle,#kiara_04d_schema_harness_mmd .node ellipse,#kiara_04d_schema_harness_mmd .node polygon{fill:#eef4fb;stroke:#527398;stroke-width:1px;}#kiara_04d_schema_harness_mmd .relationshipLine{stroke:#52677d;stroke-width:1px;fill:none;}#kiara_04d_schema_harness_mmd .marker{fill:none!important;stroke:#52677d!important;stroke-width:1;}#kiara_04d_schema_harness_mmd [data-look=neo].labelBkg{background-color:rgba(247, 249, 252, 0.5);}#kiara_04d_schema_harness_mmd .cluster rect{fill:#f7f9fc;stroke:#a9b9c9;stroke-width:1px;}#kiara_04d_schema_harness_mmd .cluster text{fill:#080603;}#kiara_04d_schema_harness_mmd .cluster-label text{fill:#080603;}#kiara_04d_schema_harness_mmd .node .neo-node{stroke:#527398;}#kiara_04d_schema_harness_mmd [data-look="neo"].node rect,#kiara_04d_schema_harness_mmd [data-look="neo"].cluster rect,#kiara_04d_schema_harness_mmd [data-look="neo"].node polygon{stroke:url(#kiara_04d_schema_harness_mmd-gradient);filter:drop-shadow( 1px 2px 2px rgba(185,185,185,1));}#kiara_04d_schema_harness_mmd [data-look="neo"].swimlane.cluster rect{filter:none;}#kiara_04d_schema_harness_mmd [data-look="neo"].node path{stroke:url(#kiara_04d_schema_harness_mmd-gradient);stroke-width:1px;}#kiara_04d_schema_harness_mmd [data-look="neo"].node .outer-path{filter:drop-shadow( 1px 2px 2px rgba(185,185,185,1));}#kiara_04d_schema_harness_mmd [data-look="neo"].node .neo-line path{stroke:#527398;filter:none;}#kiara_04d_schema_harness_mmd [data-look="neo"].node circle{stroke:url(#kiara_04d_schema_harness_mmd-gradient);filter:drop-shadow( 1px 2px 2px rgba(185,185,185,1));}#kiara_04d_schema_harness_mmd [data-look="neo"].node circle .state-start{fill:#000000;}#kiara_04d_schema_harness_mmd [data-look="neo"].icon-shape .icon{fill:url(#kiara_04d_schema_harness_mmd-gradient);filter:drop-shadow( 1px 2px 2px rgba(185,185,185,1));}#kiara_04d_schema_harness_mmd [data-look="neo"].icon-shape .icon-neo path{stroke:url(#kiara_04d_schema_harness_mmd-gradient);filter:drop-shadow( 1px 2px 2px rgba(185,185,185,1));}#kiara_04d_schema_harness_mmd :root{--mermaid-font-family:Arial,sans-serif;}</style><g><defs><marker id="kiara_04d_schema_harness_mmd_er-onlyOneStart" class="marker onlyOne er" refX="0" refY="9" markerWidth="18" markerHeight="18" orient="auto"><path d="M9,0 L9,18 M15,0 L15,18"/></marker></defs><defs><marker id="kiara_04d_schema_harness_mmd_er-onlyOneEnd" class="marker onlyOne er" refX="18" refY="9" markerWidth="18" markerHeight="18" orient="auto"><path d="M3,0 L3,18 M9,0 L9,18"/></marker></defs><defs><marker id="kiara_04d_schema_harness_mmd_er-zeroOrOneStart" class="marker zeroOrOne er" refX="0" refY="9" markerWidth="30" markerHeight="18" orient="auto"><circle fill="white" cx="21" cy="9" r="6"/><path d="M9,0 L9,18"/></marker></defs><defs><marker id="kiara_04d_schema_harness_mmd_er-zeroOrOneEnd" class="marker zeroOrOne er" refX="30" refY="9" markerWidth="30" markerHeight="18" orient="auto"><circle fill="white" cx="9" cy="9" r="6"/><path d="M21,0 L21,18"/></marker></defs><defs><marker id="kiara_04d_schema_harness_mmd_er-oneOrMoreStart" class="marker oneOrMore er" refX="18" refY="18" markerWidth="45" markerHeight="36" orient="auto"><path d="M0,18 Q 18,0 36,18 Q 18,36 0,18 M42,9 L42,27"/></marker></defs><defs><marker id="kiara_04d_schema_harness_mmd_er-oneOrMoreEnd" class="marker oneOrMore er" refX="27" refY="18" markerWidth="45" markerHeight="36" orient="auto"><path d="M3,9 L3,27 M9,18 Q27,0 45,18 Q27,36 9,18"/></marker></defs><defs><marker id="kiara_04d_schema_harness_mmd_er-zeroOrMoreStart" class="marker zeroOrMore er" refX="18" refY="18" markerWidth="57" markerHeight="36" orient="auto"><circle fill="white" cx="48" cy="18" r="6"/><path d="M0,18 Q18,0 36,18 Q18,36 0,18"/></marker></defs><defs><marker id="kiara_04d_schema_harness_mmd_er-zeroOrMoreEnd" class="marker zeroOrMore er" refX="39" refY="18" markerWidth="57" markerHeight="36" orient="auto"><circle fill="white" cx="9" cy="18" r="6"/><path d="M21,18 Q39,0 57,18 Q39,36 21,18"/></marker></defs><g class="root"><g class="clusters"/><g class="edgePaths"><path d="M282.219,41.471L296.993,37.643C311.768,33.814,341.318,26.157,393.719,22.329C446.12,18.5,521.372,18.5,596.301,18.5C671.229,18.5,745.833,18.5,801.29,30.034C856.747,41.567,893.057,64.634,911.212,76.168L929.367,87.701" id="kiara_04d_schema_harness_mmd-id_entity-RUN-0_entity-HARNESS_VERSION-1_0" class="edge-thickness-normal edge-pattern-solid relationshipLine" style="undefined;;;undefined" data-edge="true" data-et="edge" data-id="id_entity-RUN-0_entity-HARNESS_VERSION-1_0" data-points="W3sieCI6MjgyLjIxODc1LCJ5Ijo0MS40NzEyMjUzODY3MTgzNDV9LHsieCI6MzcwLjg2NzE4NzUsInkiOjE4LjV9LHsieCI6NTk2LjYyNSwieSI6MTguNX0seyJ4Ijo4MjAuNDM3NSwieSI6MTguNX0seyJ4Ijo5MjkuMzY3MTg3NSwieSI6ODcuNzAxMTQyMTMxOTc5N31d" data-look="classic" marker-start="url(#kiara_04d_schema_harness_mmd_er-zeroOrMoreStart)" marker-end="url(#kiara_04d_schema_harness_mmd_er-onlyOneEnd)"/><path d="M223.488,135.5L248.051,153.833C272.615,172.167,321.741,208.833,362.041,227.167C402.341,245.5,433.815,245.5,449.552,245.5L465.289,245.5" id="kiara_04d_schema_harness_mmd-id_entity-RUN-0_entity-HARNESS_CANDIDATE-2_1" class="edge-thickness-normal edge-pattern-solid relationshipLine" style="undefined;;;undefined" data-edge="true" data-et="edge" data-id="id_entity-RUN-0_entity-HARNESS_CANDIDATE-2_1" data-points="W3sieCI6MjIzLjQ4ODIwMDExMTI3NTk0LCJ5IjoxMzUuNX0seyJ4IjozNzAuODY3MTg3NSwieSI6MjQ1LjV9LHsieCI6NDY1LjI4OTA2MjUsInkiOjI0NS41fV0=" data-look="classic" marker-start="url(#kiara_04d_schema_harness_mmd_er-onlyOneStart)" marker-end="url(#kiara_04d_schema_harness_mmd_er-zeroOrMoreEnd)"/><path d="M648.427,323.5L677.096,366.667C705.764,409.833,763.101,496.167,806.22,539.333C849.339,582.5,878.24,582.5,892.69,582.5L907.141,582.5" id="kiara_04d_schema_harness_mmd-id_entity-HARNESS_CANDIDATE-2_entity-EVALUATION_RUN-3_2" class="edge-thickness-normal edge-pattern-solid relationshipLine" style="undefined;;;undefined" data-edge="true" data-et="edge" data-id="id_entity-HARNESS_CANDIDATE-2_entity-EVALUATION_RUN-3_2" data-points="W3sieCI6NjQ4LjQyNzI5OTcwMzI2NDEsInkiOjMyMy41fSx7IngiOjgyMC40Mzc1LCJ5Ijo1ODIuNX0seyJ4Ijo5MDcuMTQwNjI1LCJ5Ijo1ODIuNX1d" data-look="classic" marker-start="url(#kiara_04d_schema_harness_mmd_er-onlyOneStart)" marker-end="url(#kiara_04d_schema_harness_mmd_er-zeroOrMoreEnd)"/><path d="M727.961,170.681L743.374,161.901C758.786,153.121,789.612,135.56,823.18,130.275C856.747,124.989,893.057,131.978,911.212,135.472L929.367,138.966" id="kiara_04d_schema_harness_mmd-id_entity-HARNESS_CANDIDATE-2_entity-HARNESS_VERSION-1_3" class="edge-thickness-normal edge-pattern-solid relationshipLine" style="undefined;;;undefined" data-edge="true" data-et="edge" data-id="id_entity-HARNESS_CANDIDATE-2_entity-HARNESS_VERSION-1_3" data-points="W3sieCI6NzI3Ljk2MDkzNzUsInkiOjE3MC42ODE0MjYyNzc1NzYxfSx7IngiOjgyMC40Mzc1LCJ5IjoxMTh9LHsieCI6OTI5LjM2NzE4NzUsInkiOjEzOC45NjYzNzA1NTgzNzU2NH1d" data-look="classic" marker-start="url(#kiara_04d_schema_harness_mmd_er-onlyOneStart)" marker-end="url(#kiara_04d_schema_harness_mmd_er-zeroOrOneEnd)"/><path d="M733.546,463.5L748.028,455.25C762.51,447,791.474,430.5,831.849,393.125C872.224,355.75,924.01,297.5,949.903,268.375L975.796,239.25" id="kiara_04d_schema_harness_mmd-id_entity-CHAMPION_POINTER-4_entity-HARNESS_VERSION-1_4" class="edge-thickness-normal edge-pattern-solid relationshipLine" style="undefined;;;undefined" data-edge="true" data-et="edge" data-id="id_entity-CHAMPION_POINTER-4_entity-HARNESS_VERSION-1_4" data-points="W3sieCI6NzMzLjU0NTU4ODIzNTI5NDEsInkiOjQ2My41fSx7IngiOjgyMC40Mzc1LCJ5Ijo0MTR9LHsieCI6OTc1Ljc5NjA0MDQzMDI2NzEsInkiOjIzOS4yNX1d" data-look="classic" marker-start="url(#kiara_04d_schema_harness_mmd_er-zeroOrMoreStart)" marker-end="url(#kiara_04d_schema_harness_mmd_er-onlyOneEnd)"/></g><g class="edgeLabels"><g class="edgeLabel" transform="translate(596.625, 18.5)"><g class="label" data-id="id_entity-RUN-0_entity-HARNESS_VERSION-1_0" transform="translate(-29.578125, -10.5)"><foreignObject width="59.15625" height="21"><div xmlns="http://www.w3.org/1999/xhtml" class="labelBkg" style="display: table-cell; white-space: nowrap; line-height: 1.5; max-width: 200px; text-align: center;"><span class="edgeLabel"><p>R28_pins</p></span></div></foreignObject></g></g><g class="edgeLabel" transform="translate(370.8671875, 245.5)"><g class="label" data-id="id_entity-RUN-0_entity-HARNESS_CANDIDATE-2_1" transform="translate(-48.6484375, -10.5)"><foreignObject width="97.296875" height="21"><div xmlns="http://www.w3.org/1999/xhtml" class="labelBkg" style="display: table-cell; white-space: nowrap; line-height: 1.5; max-width: 200px; text-align: center;"><span class="edgeLabel"><p>R30_diagnoses</p></span></div></foreignObject></g></g><g class="edgeLabel" transform="translate(820.4375, 582.5)"><g class="label" data-id="id_entity-HARNESS_CANDIDATE-2_entity-EVALUATION_RUN-3_2" transform="translate(-46.703125, -10.5)"><foreignObject width="93.40625" height="21"><div xmlns="http://www.w3.org/1999/xhtml" class="labelBkg" style="display: table-cell; white-space: nowrap; line-height: 1.5; max-width: 200px; text-align: center;"><span class="edgeLabel"><p>R31_evaluates</p></span></div></foreignObject></g></g><g class="edgeLabel" transform="translate(822.64673, 118.42522)"><g class="label" data-id="id_entity-HARNESS_CANDIDATE-2_entity-HARNESS_VERSION-1_3" transform="translate(-45.9140625, -10.5)"><foreignObject width="91.828125" height="21"><div xmlns="http://www.w3.org/1999/xhtml" class="labelBkg" style="display: table-cell; white-space: nowrap; line-height: 1.5; max-width: 200px; text-align: center;"><span class="edgeLabel"><p>R32_promotes</p></span></div></foreignObject></g></g><g class="edgeLabel" transform="translate(864.89481, 363.99364)"><g class="label" data-id="id_entity-CHAMPION_POINTER-4_entity-HARNESS_VERSION-1_4" transform="translate(-35.4140625, -10.5)"><foreignObject width="70.828125" height="21"><div xmlns="http://www.w3.org/1999/xhtml" class="labelBkg" style="display: table-cell; white-space: nowrap; line-height: 1.5; max-width: 200px; text-align: center;"><span class="edgeLabel"><p>R33_points</p></span></div></foreignObject></g></g></g><g class="nodes"><g class="node default" id="kiara_04d_schema_harness_mmd-entity-RUN-0" data-look="classic" transform="translate(145.109375, 77)"><g class="outer-path" style=""><path d="M-137.109375 -58.5 L137.109375 -58.5 L137.109375 58.5 L-137.109375 58.5" stroke="none" stroke-width="0" fill="#eef4fb"/><path d="M-137.109375 -58.5 C-80.39797193174309 -58.5, -23.686568863486173 -58.5, 137.109375 -58.5 M-137.109375 -58.5 C-41.64939907459484 -58.5, 53.81057685081032 -58.5, 137.109375 -58.5 M137.109375 -58.5 C137.109375 -21.528695269580922, 137.109375 15.442609460838156, 137.109375 58.5 M137.109375 -58.5 C137.109375 -32.81048504048958, 137.109375 -7.12097008097917, 137.109375 58.5 M137.109375 58.5 C42.83244985424972 58.5, -51.44447529150057 58.5, -137.109375 58.5 M137.109375 58.5 C52.76977994093612 58.5, -31.569815118127764 58.5, -137.109375 58.5 M-137.109375 58.5 C-137.109375 21.514395608659825, -137.109375 -15.47120878268035, -137.109375 -58.5 M-137.109375 58.5 C-137.109375 22.710167639795692, -137.109375 -13.079664720408616, -137.109375 -58.5" stroke="#527398" stroke-width="1.3" fill="none" stroke-dasharray="0 0"/></g><g style="" class="row-rect-odd"><path d="M-137.109375 -19.5 L137.109375 -19.5 L137.109375 19.5 L-137.109375 19.5" stroke="none" stroke-width="0" fill="hsl(212.3076923077, 61.9047619048%, 100%)"/><path d="M-137.109375 -19.5 C-80.39797193174309 -19.5, -23.686568863486173 -19.5, 137.109375 -19.5 M-137.109375 -19.5 C-41.64939907459484 -19.5, 53.81057685081032 -19.5, 137.109375 -19.5 M137.109375 -19.5 C137.109375 -7.176231756526976, 137.109375 5.1475364869460485, 137.109375 19.5 M137.109375 -19.5 C137.109375 -10.936828346829861, 137.109375 -2.373656693659722, 137.109375 19.5 M137.109375 19.5 C42.83244985424972 19.5, -51.44447529150057 19.5, -137.109375 19.5 M137.109375 19.5 C52.76977994093612 19.5, -31.569815118127764 19.5, -137.109375 19.5 M-137.109375 19.5 C-137.109375 7.17146520288661, -137.109375 -5.15706959422678, -137.109375 -19.5 M-137.109375 19.5 C-137.109375 7.570055879931896, -137.109375 -4.359888240136208, -137.109375 -19.5" stroke="#527398" stroke-width="1.3" fill="none" stroke-dasharray="0 0"/></g><g style="" class="row-rect-even"><path d="M-137.109375 19.5 L137.109375 19.5 L137.109375 58.5 L-137.109375 58.5" stroke="none" stroke-width="0" fill="hsl(212.3076923077, 61.9047619048%, 100%)"/><path d="M-137.109375 19.5 C-80.39797193174309 19.5, -23.686568863486173 19.5, 137.109375 19.5 M-137.109375 19.5 C-41.64939907459484 19.5, 53.81057685081032 19.5, 137.109375 19.5 M137.109375 19.5 C137.109375 31.823768243473026, 137.109375 44.14753648694605, 137.109375 58.5 M137.109375 19.5 C137.109375 28.063171653170137, 137.109375 36.626343306340274, 137.109375 58.5 M137.109375 58.5 C42.83244985424972 58.5, -51.44447529150057 58.5, -137.109375 58.5 M137.109375 58.5 C52.76977994093612 58.5, -31.569815118127764 58.5, -137.109375 58.5 M-137.109375 58.5 C-137.109375 46.17146520288661, -137.109375 33.84293040577322, -137.109375 19.5 M-137.109375 58.5 C-137.109375 46.5700558799319, -137.109375 34.64011175986379, -137.109375 19.5" stroke="#527398" stroke-width="1.3" fill="none" stroke-dasharray="0 0"/></g><g class="label name" transform="translate(-17.3359375, -51)" style=""><foreignObject width="34.671875" height="24"><div xmlns="http://www.w3.org/1999/xhtml" style="display: table-cell; white-space: nowrap; line-height: 1.5; max-width: 135px; text-align: start;"><span class="nodeLabel"><p>RUN</p></span></div></foreignObject></g><g class="label attribute-type" transform="translate(-124.609375, -12)" style=""><foreignObject width="39.125" height="24"><div xmlns="http://www.w3.org/1999/xhtml" style="display: table-cell; white-space: nowrap; line-height: 1.5; max-width: 139px; text-align: start;"><span class="nodeLabel"><p>string</p></span></div></foreignObject></g><g class="label attribute-name" transform="translate(-60.484375, -12)" style=""><foreignObject width="12.453125" height="24"><div xmlns="http://www.w3.org/1999/xhtml" style="display: table-cell; white-space: nowrap; line-height: 1.5; max-width: 112px; text-align: start;"><span class="nodeLabel"><p>id</p></span></div></foreignObject></g><g class="label attribute-keys" transform="translate(103.265625, -12)" style=""><foreignObject width="21.34375" height="24"><div xmlns="http://www.w3.org/1999/xhtml" style="display: table-cell; white-space: nowrap; line-height: 1.5; max-width: 121px; text-align: start;"><span class="nodeLabel"><p>PK</p></span></div></foreignObject></g><g class="label attribute-comment" transform="translate(149.609375, -12)" style=""><foreignObject width="0" height="0"><div xmlns="http://www.w3.org/1999/xhtml" style="display: table-cell; white-space: nowrap; line-height: 1.5; max-width: 100px; text-align: start;"><span class="nodeLabel"></span></div></foreignObject></g><g class="label attribute-type" transform="translate(-124.609375, 27)" style=""><foreignObject width="39.125" height="24"><div xmlns="http://www.w3.org/1999/xhtml" style="display: table-cell; white-space: nowrap; line-height: 1.5; max-width: 139px; text-align: start;"><span class="nodeLabel"><p>string</p></span></div></foreignObject></g><g class="label attribute-name" transform="translate(-60.484375, 27)" style=""><foreignObject width="138.75" height="24"><div xmlns="http://www.w3.org/1999/xhtml" style="display: table-cell; white-space: nowrap; line-height: 1.5; max-width: 239px; text-align: start;"><span class="nodeLabel"><p>harness_version_id</p></span></div></foreignObject></g><g class="label attribute-keys" transform="translate(103.265625, 27)" style=""><foreignObject width="20.453125" height="24"><div xmlns="http://www.w3.org/1999/xhtml" style="display: table-cell; white-space: nowrap; line-height: 1.5; max-width: 120px; text-align: start;"><span class="nodeLabel"><p>FK</p></span></div></foreignObject></g><g class="label attribute-comment" transform="translate(149.609375, 27)" style=""><foreignObject width="0" height="0"><div xmlns="http://www.w3.org/1999/xhtml" style="display: table-cell; white-space: nowrap; line-height: 1.5; max-width: 100px; text-align: start;"><span class="nodeLabel"></span></div></foreignObject></g><g class="divider"><path d="M-137.109375 -19.50005 L-137.109375 -19.49995 L137.109375 -19.49995 L137.109375 -19.50005" stroke="none" stroke-width="0" fill="#eef4fb" fill-rule="evenodd"/><path d="M-137.109375 -19.50005 C-137.109375 -19.50002931891854, -137.109375 -19.50000863783708, -137.109375 -19.49995 M-137.109375 -19.50005 C-137.109375 -19.500015188384847, -137.109375 -19.499980376769695, -137.109375 -19.49995 M-137.109375 -19.49995 C-50.45787953808029 -19.49995, 36.19361592383942 -19.49995, 137.109375 -19.49995 M-137.109375 -19.49995 C-76.89957431364746 -19.49995, -16.689773627294926 -19.49995, 137.109375 -19.49995 M137.109375 -19.49995 C137.109375 -19.499984380189225, 137.109375 -19.500018760378456, 137.109375 -19.50005 M137.109375 -19.49995 C137.109375 -19.499980756319566, 137.109375 -19.50001151263913, 137.109375 -19.50005 M137.109375 -19.50005 C50.42436470779647 -19.50005, -36.26064558440706 -19.50005, -137.109375 -19.50005 M137.109375 -19.50005 C53.22695540577115 -19.50005, -30.6554641884577 -19.50005, -137.109375 -19.50005" stroke="#527398" stroke-width="1.3" fill="none" stroke-dasharray="0 0"/></g><g class="divider"><path d="M-72.984425 -19.5 L-72.984325 -19.5 L-72.984325 58.5 L-72.984425 58.5" stroke="none" stroke-width="0" fill="#eef4fb" fill-rule="evenodd"/><path d="M-72.984425 -19.5 C-72.98440431891854 -19.5, -72.98438363783708 -19.5, -72.984325 -19.5 M-72.984425 -19.5 C-72.98439018838485 -19.5, -72.9843553767697 -19.5, -72.984325 -19.5 M-72.984325 -19.5 C-72.984325 5.1475364869460485, -72.984325 29.795072973892097, -72.984325 58.5 M-72.984325 -19.5 C-72.984325 -2.373656693659722, -72.984325 14.752686612680556, -72.984325 58.5 M-72.984325 58.5 C-72.98435938018923 58.5, -72.98439376037845 58.5, -72.984425 58.5 M-72.984325 58.5 C-72.98435575631956 58.5, -72.98438651263913 58.5, -72.984425 58.5 M-72.984425 58.5 C-72.984425 33.84293040577322, -72.984425 9.18586081154644, -72.984425 -19.5 M-72.984425 58.5 C-72.984425 34.64011175986379, -72.984425 10.780223519727585, -72.984425 -19.5" stroke="#527398" stroke-width="1.3" fill="none" stroke-dasharray="0 0"/></g><g class="divider"><path d="M90.765575 -19.5 L90.765675 -19.5 L90.765675 58.5 L90.765575 58.5" stroke="none" stroke-width="0" fill="#eef4fb" fill-rule="evenodd"/><path d="M90.765575 -19.5 C90.76559568108146 -19.5, 90.76561636216292 -19.5, 90.765675 -19.5 M90.765575 -19.5 C90.76560981161515 -19.5, 90.7656446232303 -19.5, 90.765675 -19.5 M90.765675 -19.5 C90.765675 5.1475364869460485, 90.765675 29.795072973892097, 90.765675 58.5 M90.765675 -19.5 C90.765675 -2.373656693659722, 90.765675 14.752686612680556, 90.765675 58.5 M90.765675 58.5 C90.76564061981077 58.5, 90.76560623962155 58.5, 90.765575 58.5 M90.765675 58.5 C90.76564424368044 58.5, 90.76561348736087 58.5, 90.765575 58.5 M90.765575 58.5 C90.765575 33.84293040577322, 90.765575 9.18586081154644, 90.765575 -19.5 M90.765575 58.5 C90.765575 34.64011175986379, 90.765575 10.780223519727585, 90.765575 -19.5" stroke="#527398" stroke-width="1.3" fill="none" stroke-dasharray="0 0"/></g><g class="divider"><path d="M-137.109375 -19.50005 L-137.109375 -19.49995 L137.109375 -19.49995 L137.109375 -19.50005" stroke="none" stroke-width="0" fill="#eef4fb" fill-rule="evenodd"/><path d="M-137.109375 -19.50005 C-137.109375 -19.50002931891854, -137.109375 -19.50000863783708, -137.109375 -19.49995 M-137.109375 -19.50005 C-137.109375 -19.500015188384847, -137.109375 -19.499980376769695, -137.109375 -19.49995 M-137.109375 -19.49995 C-50.45787953808029 -19.49995, 36.19361592383942 -19.49995, 137.109375 -19.49995 M-137.109375 -19.49995 C-76.89957431364746 -19.49995, -16.689773627294926 -19.49995, 137.109375 -19.49995 M137.109375 -19.49995 C137.109375 -19.499984380189225, 137.109375 -19.500018760378456, 137.109375 -19.50005 M137.109375 -19.49995 C137.109375 -19.499980756319566, 137.109375 -19.50001151263913, 137.109375 -19.50005 M137.109375 -19.50005 C50.42436470779647 -19.50005, -36.26064558440706 -19.50005, -137.109375 -19.50005 M137.109375 -19.50005 C53.22695540577115 -19.50005, -30.6554641884577 -19.50005, -137.109375 -19.50005" stroke="#527398" stroke-width="1.3" fill="none" stroke-dasharray="0 0"/></g></g><g class="node default" id="kiara_04d_schema_harness_mmd-entity-HARNESS_VERSION-1" data-look="classic" transform="translate(1045.140625, 161.25)"><g class="outer-path" style=""><path d="M-115.7734375 -78 L115.7734375 -78 L115.7734375 78 L-115.7734375 78" stroke="none" stroke-width="0" fill="#eef4fb"/><path d="M-115.7734375 -78 C-67.88703966133907 -78, -20.000641822678148 -78, 115.7734375 -78 M-115.7734375 -78 C-35.16823047785874 -78, 45.436976544282516 -78, 115.7734375 -78 M115.7734375 -78 C115.7734375 -28.704927026107903, 115.7734375 20.590145947784194, 115.7734375 78 M115.7734375 -78 C115.7734375 -43.747313387319444, 115.7734375 -9.494626774638888, 115.7734375 78 M115.7734375 78 C36.16718372593314 78, -43.439070048133715 78, -115.7734375 78 M115.7734375 78 C44.55814068061153 78, -26.65715613877694 78, -115.7734375 78 M-115.7734375 78 C-115.7734375 28.68586081154644, -115.7734375 -20.62827837690712, -115.7734375 -78 M-115.7734375 78 C-115.7734375 30.280223519727585, -115.7734375 -17.43955296054483, -115.7734375 -78" stroke="#527398" stroke-width="1.3" fill="none" stroke-dasharray="0 0"/></g><g style="" class="row-rect-odd"><path d="M-115.7734375 -39 L115.7734375 -39 L115.7734375 0 L-115.7734375 0" stroke="none" stroke-width="0" fill="hsl(212.3076923077, 61.9047619048%, 100%)"/><path d="M-115.7734375 -39 C-67.88703966133907 -39, -20.000641822678148 -39, 115.7734375 -39 M-115.7734375 -39 C-35.16823047785874 -39, 45.436976544282516 -39, 115.7734375 -39 M115.7734375 -39 C115.7734375 -26.676231756526974, 115.7734375 -14.352463513053952, 115.7734375 0 M115.7734375 -39 C115.7734375 -30.436828346829863, 115.7734375 -21.873656693659722, 115.7734375 0 M115.7734375 0 C36.16718372593314 0, -43.439070048133715 0, -115.7734375 0 M115.7734375 0 C44.55814068061153 0, -26.65715613877694 0, -115.7734375 0 M-115.7734375 0 C-115.7734375 -12.32853479711339, -115.7734375 -24.65706959422678, -115.7734375 -39 M-115.7734375 0 C-115.7734375 -11.929944120068104, -115.7734375 -23.859888240136208, -115.7734375 -39" stroke="#527398" stroke-width="1.3" fill="none" stroke-dasharray="0 0"/></g><g style="" class="row-rect-even"><path d="M-115.7734375 0 L115.7734375 0 L115.7734375 39 L-115.7734375 39" stroke="none" stroke-width="0" fill="hsl(212.3076923077, 61.9047619048%, 100%)"/><path d="M-115.7734375 0 C-67.88703966133907 0, -20.000641822678148 0, 115.7734375 0 M-115.7734375 0 C-35.16823047785874 0, 45.436976544282516 0, 115.7734375 0 M115.7734375 0 C115.7734375 12.323768243473024, 115.7734375 24.64753648694605, 115.7734375 39 M115.7734375 0 C115.7734375 8.563171653170139, 115.7734375 17.126343306340278, 115.7734375 39 M115.7734375 39 C36.16718372593314 39, -43.439070048133715 39, -115.7734375 39 M115.7734375 39 C44.55814068061153 39, -26.65715613877694 39, -115.7734375 39 M-115.7734375 39 C-115.7734375 26.67146520288661, -115.7734375 14.34293040577322, -115.7734375 0 M-115.7734375 39 C-115.7734375 27.070055879931896, -115.7734375 15.140111759863792, -115.7734375 0" stroke="#527398" stroke-width="1.3" fill="none" stroke-dasharray="0 0"/></g><g style="" class="row-rect-odd"><path d="M-115.7734375 39 L115.7734375 39 L115.7734375 78 L-115.7734375 78" stroke="none" stroke-width="0" fill="hsl(212.3076923077, 61.9047619048%, 100%)"/><path d="M-115.7734375 39 C-67.88703966133907 39, -20.000641822678148 39, 115.7734375 39 M-115.7734375 39 C-35.16823047785874 39, 45.436976544282516 39, 115.7734375 39 M115.7734375 39 C115.7734375 51.323768243473026, 115.7734375 63.64753648694605, 115.7734375 78 M115.7734375 39 C115.7734375 47.56317165317014, 115.7734375 56.126343306340274, 115.7734375 78 M115.7734375 78 C36.16718372593314 78, -43.439070048133715 78, -115.7734375 78 M115.7734375 78 C44.55814068061153 78, -26.65715613877694 78, -115.7734375 78 M-115.7734375 78 C-115.7734375 65.67146520288661, -115.7734375 53.34293040577322, -115.7734375 39 M-115.7734375 78 C-115.7734375 66.0700558799319, -115.7734375 54.14011175986379, -115.7734375 39" stroke="#527398" stroke-width="1.3" fill="none" stroke-dasharray="0 0"/></g><g class="label name" transform="translate(-79.1328125, -70.5)" style=""><foreignObject width="158.265625" height="24"><div xmlns="http://www.w3.org/1999/xhtml" style="display: table-cell; white-space: nowrap; line-height: 1.5; max-width: 258px; text-align: start;"><span class="nodeLabel"><p>HARNESS_VERSION</p></span></div></foreignObject></g><g class="label attribute-type" transform="translate(-103.2734375, -31.5)" style=""><foreignObject width="39.125" height="24"><div xmlns="http://www.w3.org/1999/xhtml" style="display: table-cell; white-space: nowrap; line-height: 1.5; max-width: 139px; text-align: start;"><span class="nodeLabel"><p>string</p></span></div></foreignObject></g><g class="label attribute-name" transform="translate(-39.1484375, -31.5)" style=""><foreignObject width="12.453125" height="24"><div xmlns="http://www.w3.org/1999/xhtml" style="display: table-cell; white-space: nowrap; line-height: 1.5; max-width: 112px; text-align: start;"><span class="nodeLabel"><p>id</p></span></div></foreignObject></g><g class="label attribute-keys" transform="translate(81.9296875, -31.5)" style=""><foreignObject width="21.34375" height="24"><div xmlns="http://www.w3.org/1999/xhtml" style="display: table-cell; white-space: nowrap; line-height: 1.5; max-width: 121px; text-align: start;"><span class="nodeLabel"><p>PK</p></span></div></foreignObject></g><g class="label attribute-comment" transform="translate(128.2734375, -31.5)" style=""><foreignObject width="0" height="0"><div xmlns="http://www.w3.org/1999/xhtml" style="display: table-cell; white-space: nowrap; line-height: 1.5; max-width: 100px; text-align: start;"><span class="nodeLabel"></span></div></foreignObject></g><g class="label attribute-type" transform="translate(-103.2734375, 7.5)" style=""><foreignObject width="39.125" height="24"><div xmlns="http://www.w3.org/1999/xhtml" style="display: table-cell; white-space: nowrap; line-height: 1.5; max-width: 139px; text-align: start;"><span class="nodeLabel"><p>string</p></span></div></foreignObject></g><g class="label attribute-name" transform="translate(-39.1484375, 7.5)" style=""><foreignObject width="65.84375" height="24"><div xmlns="http://www.w3.org/1999/xhtml" style="display: table-cell; white-space: nowrap; line-height: 1.5; max-width: 166px; text-align: start;"><span class="nodeLabel"><p>tenant_id</p></span></div></foreignObject></g><g class="label attribute-keys" transform="translate(81.9296875, 7.5)" style=""><foreignObject width="20.453125" height="24"><div xmlns="http://www.w3.org/1999/xhtml" style="display: table-cell; white-space: nowrap; line-height: 1.5; max-width: 120px; text-align: start;"><span class="nodeLabel"><p>FK</p></span></div></foreignObject></g><g class="label attribute-comment" transform="translate(128.2734375, 7.5)" style=""><foreignObject width="0" height="0"><div xmlns="http://www.w3.org/1999/xhtml" style="display: table-cell; white-space: nowrap; line-height: 1.5; max-width: 100px; text-align: start;"><span class="nodeLabel"></span></div></foreignObject></g><g class="label attribute-type" transform="translate(-103.2734375, 46.5)" style=""><foreignObject width="39.125" height="24"><div xmlns="http://www.w3.org/1999/xhtml" style="display: table-cell; white-space: nowrap; line-height: 1.5; max-width: 139px; text-align: start;"><span class="nodeLabel"><p>string</p></span></div></foreignObject></g><g class="label attribute-name" transform="translate(-39.1484375, 46.5)" style=""><foreignObject width="96.078125" height="24"><div xmlns="http://www.w3.org/1999/xhtml" style="display: table-cell; white-space: nowrap; line-height: 1.5; max-width: 196px; text-align: start;"><span class="nodeLabel"><p>content_hash</p></span></div></foreignObject></g><g class="label attribute-keys" transform="translate(81.9296875, 46.5)" style=""><foreignObject width="0" height="0"><div xmlns="http://www.w3.org/1999/xhtml" style="display: table-cell; white-space: nowrap; line-height: 1.5; max-width: 100px; text-align: start;"><span class="nodeLabel"></span></div></foreignObject></g><g class="label attribute-comment" transform="translate(128.2734375, 46.5)" style=""><foreignObject width="0" height="0"><div xmlns="http://www.w3.org/1999/xhtml" style="display: table-cell; white-space: nowrap; line-height: 1.5; max-width: 100px; text-align: start;"><span class="nodeLabel"></span></div></foreignObject></g><g class="divider"><path d="M-115.7734375 -39.00005 L-115.7734375 -38.99995 L115.7734375 -38.99995 L115.7734375 -39.00005" stroke="none" stroke-width="0" fill="#eef4fb" fill-rule="evenodd"/><path d="M-115.7734375 -39.00005 C-115.7734375 -39.00002931891854, -115.7734375 -39.00000863783708, -115.7734375 -38.99995 M-115.7734375 -39.00005 C-115.7734375 -39.00001518838485, -115.7734375 -38.99998037676969, -115.7734375 -38.99995 M-115.7734375 -38.99995 C-42.60600096152774 -38.99995, 30.56143557694452 -38.99995, 115.7734375 -38.99995 M-115.7734375 -38.99995 C-64.93303656717617 -38.99995, -14.092635634352334 -38.99995, 115.7734375 -38.99995 M115.7734375 -38.99995 C115.7734375 -38.999984380189225, 115.7734375 -39.00001876037845, 115.7734375 -39.00005 M115.7734375 -38.99995 C115.7734375 -38.999980756319566, 115.7734375 -39.000011512639134, 115.7734375 -39.00005 M115.7734375 -39.00005 C42.57770145896501 -39.00005, -30.61803458206998 -39.00005, -115.7734375 -39.00005 M115.7734375 -39.00005 C44.94417391214374 -39.00005, -25.88508967571252 -39.00005, -115.7734375 -39.00005" stroke="#527398" stroke-width="1.3" fill="none" stroke-dasharray="0 0"/></g><g class="divider"><path d="M-51.6484875 -39 L-51.6483875 -39 L-51.6483875 78 L-51.6484875 78" stroke="none" stroke-width="0" fill="#eef4fb" fill-rule="evenodd"/><path d="M-51.6484875 -39 C-51.64846681891854 -39, -51.64844613783708 -39, -51.6483875 -39 M-51.6484875 -39 C-51.64845268838485 -39, -51.64841787676969 -39, -51.6483875 -39 M-51.6483875 -39 C-51.6483875 -2.028695269580922, -51.6483875 34.942609460838156, -51.6483875 78 M-51.6483875 -39 C-51.6483875 -13.310485040489585, -51.6483875 12.37902991902083, -51.6483875 78 M-51.6483875 78 C-51.648421880189225 78, -51.64845626037845 78, -51.6484875 78 M-51.6483875 78 C-51.648418256319566 78, -51.648449012639134 78, -51.6484875 78 M-51.6484875 78 C-51.6484875 41.014395608659825, -51.6484875 4.02879121731965, -51.6484875 -39 M-51.6484875 78 C-51.6484875 42.21016763979569, -51.6484875 6.420335279591384, -51.6484875 -39" stroke="#527398" stroke-width="1.3" fill="none" stroke-dasharray="0 0"/></g><g class="divider"><path d="M69.4296375 -39 L69.4297375 -39 L69.4297375 78 L69.4296375 78" stroke="none" stroke-width="0" fill="#eef4fb" fill-rule="evenodd"/><path d="M69.4296375 -39 C69.42965818108146 -39, 69.42967886216292 -39, 69.4297375 -39 M69.4296375 -39 C69.42967231161515 -39, 69.4297071232303 -39, 69.4297375 -39 M69.4297375 -39 C69.4297375 -2.028695269580922, 69.4297375 34.942609460838156, 69.4297375 78 M69.4297375 -39 C69.4297375 -13.310485040489585, 69.4297375 12.37902991902083, 69.4297375 78 M69.4297375 78 C69.42970311981077 78, 69.42966873962155 78, 69.4296375 78 M69.4297375 78 C69.42970674368044 78, 69.42967598736087 78, 69.4296375 78 M69.4296375 78 C69.4296375 41.014395608659825, 69.4296375 4.02879121731965, 69.4296375 -39 M69.4296375 78 C69.4296375 42.21016763979569, 69.4296375 6.420335279591384, 69.4296375 -39" stroke="#527398" stroke-width="1.3" fill="none" stroke-dasharray="0 0"/></g><g class="divider"><path d="M-115.7734375 -39.00005 L-115.7734375 -38.99995 L115.7734375 -38.99995 L115.7734375 -39.00005" stroke="none" stroke-width="0" fill="#eef4fb" fill-rule="evenodd"/><path d="M-115.7734375 -39.00005 C-115.7734375 -39.00002931891854, -115.7734375 -39.00000863783708, -115.7734375 -38.99995 M-115.7734375 -39.00005 C-115.7734375 -39.00001518838485, -115.7734375 -38.99998037676969, -115.7734375 -38.99995 M-115.7734375 -38.99995 C-42.60600096152774 -38.99995, 30.56143557694452 -38.99995, 115.7734375 -38.99995 M-115.7734375 -38.99995 C-64.93303656717617 -38.99995, -14.092635634352334 -38.99995, 115.7734375 -38.99995 M115.7734375 -38.99995 C115.7734375 -38.999984380189225, 115.7734375 -39.00001876037845, 115.7734375 -39.00005 M115.7734375 -38.99995 C115.7734375 -38.999980756319566, 115.7734375 -39.000011512639134, 115.7734375 -39.00005 M115.7734375 -39.00005 C42.57770145896501 -39.00005, -30.61803458206998 -39.00005, -115.7734375 -39.00005 M115.7734375 -39.00005 C44.94417391214374 -39.00005, -25.88508967571252 -39.00005, -115.7734375 -39.00005" stroke="#527398" stroke-width="1.3" fill="none" stroke-dasharray="0 0"/></g></g><g class="node default" id="kiara_04d_schema_harness_mmd-entity-HARNESS_CANDIDATE-2" data-look="classic" transform="translate(596.625, 245.5)"><g class="outer-path" style=""><path d="M-131.3359375 -78 L131.3359375 -78 L131.3359375 78 L-131.3359375 78" stroke="none" stroke-width="0" fill="#eef4fb"/><path d="M-131.3359375 -78 C-77.01255305666854 -78, -22.68916861333709 -78, 131.3359375 -78 M-131.3359375 -78 C-39.89561526171019 -78, 51.54470697657962 -78, 131.3359375 -78 M131.3359375 -78 C131.3359375 -28.704927026107903, 131.3359375 20.590145947784194, 131.3359375 78 M131.3359375 -78 C131.3359375 -43.747313387319444, 131.3359375 -9.494626774638888, 131.3359375 78 M131.3359375 78 C41.028849829047985 78, -49.27823784190403 78, -131.3359375 78 M131.3359375 78 C50.547736215787864 78, -30.24046506842427 78, -131.3359375 78 M-131.3359375 78 C-131.3359375 28.68586081154644, -131.3359375 -20.62827837690712, -131.3359375 -78 M-131.3359375 78 C-131.3359375 30.280223519727585, -131.3359375 -17.43955296054483, -131.3359375 -78" stroke="#527398" stroke-width="1.3" fill="none" stroke-dasharray="0 0"/></g><g style="" class="row-rect-odd"><path d="M-131.3359375 -39 L131.3359375 -39 L131.3359375 0 L-131.3359375 0" stroke="none" stroke-width="0" fill="hsl(212.3076923077, 61.9047619048%, 100%)"/><path d="M-131.3359375 -39 C-77.01255305666854 -39, -22.68916861333709 -39, 131.3359375 -39 M-131.3359375 -39 C-39.89561526171019 -39, 51.54470697657962 -39, 131.3359375 -39 M131.3359375 -39 C131.3359375 -26.676231756526974, 131.3359375 -14.352463513053952, 131.3359375 0 M131.3359375 -39 C131.3359375 -30.436828346829863, 131.3359375 -21.873656693659722, 131.3359375 0 M131.3359375 0 C41.028849829047985 0, -49.27823784190403 0, -131.3359375 0 M131.3359375 0 C50.547736215787864 0, -30.24046506842427 0, -131.3359375 0 M-131.3359375 0 C-131.3359375 -12.32853479711339, -131.3359375 -24.65706959422678, -131.3359375 -39 M-131.3359375 0 C-131.3359375 -11.929944120068104, -131.3359375 -23.859888240136208, -131.3359375 -39" stroke="#527398" stroke-width="1.3" fill="none" stroke-dasharray="0 0"/></g><g style="" class="row-rect-even"><path d="M-131.3359375 0 L131.3359375 0 L131.3359375 39 L-131.3359375 39" stroke="none" stroke-width="0" fill="hsl(212.3076923077, 61.9047619048%, 100%)"/><path d="M-131.3359375 0 C-77.01255305666854 0, -22.68916861333709 0, 131.3359375 0 M-131.3359375 0 C-39.89561526171019 0, 51.54470697657962 0, 131.3359375 0 M131.3359375 0 C131.3359375 12.323768243473024, 131.3359375 24.64753648694605, 131.3359375 39 M131.3359375 0 C131.3359375 8.563171653170139, 131.3359375 17.126343306340278, 131.3359375 39 M131.3359375 39 C41.028849829047985 39, -49.27823784190403 39, -131.3359375 39 M131.3359375 39 C50.547736215787864 39, -30.24046506842427 39, -131.3359375 39 M-131.3359375 39 C-131.3359375 26.67146520288661, -131.3359375 14.34293040577322, -131.3359375 0 M-131.3359375 39 C-131.3359375 27.070055879931896, -131.3359375 15.140111759863792, -131.3359375 0" stroke="#527398" stroke-width="1.3" fill="none" stroke-dasharray="0 0"/></g><g style="" class="row-rect-odd"><path d="M-131.3359375 39 L131.3359375 39 L131.3359375 78 L-131.3359375 78" stroke="none" stroke-width="0" fill="hsl(212.3076923077, 61.9047619048%, 100%)"/><path d="M-131.3359375 39 C-77.01255305666854 39, -22.68916861333709 39, 131.3359375 39 M-131.3359375 39 C-39.89561526171019 39, 51.54470697657962 39, 131.3359375 39 M131.3359375 39 C131.3359375 51.323768243473026, 131.3359375 63.64753648694605, 131.3359375 78 M131.3359375 39 C131.3359375 47.56317165317014, 131.3359375 56.126343306340274, 131.3359375 78 M131.3359375 78 C41.028849829047985 78, -49.27823784190403 78, -131.3359375 78 M131.3359375 78 C50.547736215787864 78, -30.24046506842427 78, -131.3359375 78 M-131.3359375 78 C-131.3359375 65.67146520288661, -131.3359375 53.34293040577322, -131.3359375 39 M-131.3359375 78 C-131.3359375 66.0700558799319, -131.3359375 54.14011175986379, -131.3359375 39" stroke="#527398" stroke-width="1.3" fill="none" stroke-dasharray="0 0"/></g><g class="label name" transform="translate(-88.7578125, -70.5)" style=""><foreignObject width="177.515625" height="24"><div xmlns="http://www.w3.org/1999/xhtml" style="display: table-cell; white-space: nowrap; line-height: 1.5; max-width: 278px; text-align: start;"><span class="nodeLabel"><p>HARNESS_CANDIDATE</p></span></div></foreignObject></g><g class="label attribute-type" transform="translate(-118.8359375, -31.5)" style=""><foreignObject width="39.125" height="24"><div xmlns="http://www.w3.org/1999/xhtml" style="display: table-cell; white-space: nowrap; line-height: 1.5; max-width: 139px; text-align: start;"><span class="nodeLabel"><p>string</p></span></div></foreignObject></g><g class="label attribute-name" transform="translate(-54.7109375, -31.5)" style=""><foreignObject width="12.453125" height="24"><div xmlns="http://www.w3.org/1999/xhtml" style="display: table-cell; white-space: nowrap; line-height: 1.5; max-width: 112px; text-align: start;"><span class="nodeLabel"><p>id</p></span></div></foreignObject></g><g class="label attribute-keys" transform="translate(97.4921875, -31.5)" style=""><foreignObject width="21.34375" height="24"><div xmlns="http://www.w3.org/1999/xhtml" style="display: table-cell; white-space: nowrap; line-height: 1.5; max-width: 121px; text-align: start;"><span class="nodeLabel"><p>PK</p></span></div></foreignObject></g><g class="label attribute-comment" transform="translate(143.8359375, -31.5)" style=""><foreignObject width="0" height="0"><div xmlns="http://www.w3.org/1999/xhtml" style="display: table-cell; white-space: nowrap; line-height: 1.5; max-width: 100px; text-align: start;"><span class="nodeLabel"></span></div></foreignObject></g><g class="label attribute-type" transform="translate(-118.8359375, 7.5)" style=""><foreignObject width="39.125" height="24"><div xmlns="http://www.w3.org/1999/xhtml" style="display: table-cell; white-space: nowrap; line-height: 1.5; max-width: 139px; text-align: start;"><span class="nodeLabel"><p>string</p></span></div></foreignObject></g><g class="label attribute-name" transform="translate(-54.7109375, 7.5)" style=""><foreignObject width="127.203125" height="24"><div xmlns="http://www.w3.org/1999/xhtml" style="display: table-cell; white-space: nowrap; line-height: 1.5; max-width: 227px; text-align: start;"><span class="nodeLabel"><p>parent_version_id</p></span></div></foreignObject></g><g class="label attribute-keys" transform="translate(97.4921875, 7.5)" style=""><foreignObject width="20.453125" height="24"><div xmlns="http://www.w3.org/1999/xhtml" style="display: table-cell; white-space: nowrap; line-height: 1.5; max-width: 120px; text-align: start;"><span class="nodeLabel"><p>FK</p></span></div></foreignObject></g><g class="label attribute-comment" transform="translate(143.8359375, 7.5)" style=""><foreignObject width="0" height="0"><div xmlns="http://www.w3.org/1999/xhtml" style="display: table-cell; white-space: nowrap; line-height: 1.5; max-width: 100px; text-align: start;"><span class="nodeLabel"></span></div></foreignObject></g><g class="label attribute-type" transform="translate(-118.8359375, 46.5)" style=""><foreignObject width="39.125" height="24"><div xmlns="http://www.w3.org/1999/xhtml" style="display: table-cell; white-space: nowrap; line-height: 1.5; max-width: 139px; text-align: start;"><span class="nodeLabel"><p>string</p></span></div></foreignObject></g><g class="label attribute-name" transform="translate(-54.7109375, 46.5)" style=""><foreignObject width="82.734375" height="24"><div xmlns="http://www.w3.org/1999/xhtml" style="display: table-cell; white-space: nowrap; line-height: 1.5; max-width: 183px; text-align: start;"><span class="nodeLabel"><p>patch_hash</p></span></div></foreignObject></g><g class="label attribute-keys" transform="translate(97.4921875, 46.5)" style=""><foreignObject width="0" height="0"><div xmlns="http://www.w3.org/1999/xhtml" style="display: table-cell; white-space: nowrap; line-height: 1.5; max-width: 100px; text-align: start;"><span class="nodeLabel"></span></div></foreignObject></g><g class="label attribute-comment" transform="translate(143.8359375, 46.5)" style=""><foreignObject width="0" height="0"><div xmlns="http://www.w3.org/1999/xhtml" style="display: table-cell; white-space: nowrap; line-height: 1.5; max-width: 100px; text-align: start;"><span class="nodeLabel"></span></div></foreignObject></g><g class="divider"><path d="M-131.3359375 -39.00005 L-131.3359375 -38.99995 L131.3359375 -38.99995 L131.3359375 -39.00005" stroke="none" stroke-width="0" fill="#eef4fb" fill-rule="evenodd"/><path d="M-131.3359375 -39.00005 C-131.3359375 -39.00002931891854, -131.3359375 -39.00000863783708, -131.3359375 -38.99995 M-131.3359375 -39.00005 C-131.3359375 -39.00001518838485, -131.3359375 -38.99998037676969, -131.3359375 -38.99995 M-131.3359375 -38.99995 C-48.33318592106369 -38.99995, 34.669565657872624 -38.99995, 131.3359375 -38.99995 M-131.3359375 -38.99995 C-73.66146688243461 -38.99995, -15.986996264869234 -38.99995, 131.3359375 -38.99995 M131.3359375 -38.99995 C131.3359375 -38.999984380189225, 131.3359375 -39.00001876037845, 131.3359375 -39.00005 M131.3359375 -38.99995 C131.3359375 -38.999980756319566, 131.3359375 -39.000011512639134, 131.3359375 -39.00005 M131.3359375 -39.00005 C48.30108234203797 -39.00005, -34.733772815924056 -39.00005, -131.3359375 -39.00005 M131.3359375 -39.00005 C50.98566081632016 -39.00005, -29.364615867359674 -39.00005, -131.3359375 -39.00005" stroke="#527398" stroke-width="1.3" fill="none" stroke-dasharray="0 0"/></g><g class="divider"><path d="M-67.2109875 -39 L-67.2108875 -39 L-67.2108875 78 L-67.2109875 78" stroke="none" stroke-width="0" fill="#eef4fb" fill-rule="evenodd"/><path d="M-67.2109875 -39 C-67.21096681891854 -39, -67.21094613783708 -39, -67.2108875 -39 M-67.2109875 -39 C-67.21095268838485 -39, -67.2109178767697 -39, -67.2108875 -39 M-67.2108875 -39 C-67.2108875 -2.028695269580922, -67.2108875 34.942609460838156, -67.2108875 78 M-67.2108875 -39 C-67.2108875 -13.310485040489585, -67.2108875 12.37902991902083, -67.2108875 78 M-67.2108875 78 C-67.21092188018923 78, -67.21095626037845 78, -67.2109875 78 M-67.2108875 78 C-67.21091825631956 78, -67.21094901263913 78, -67.2109875 78 M-67.2109875 78 C-67.2109875 41.014395608659825, -67.2109875 4.02879121731965, -67.2109875 -39 M-67.2109875 78 C-67.2109875 42.21016763979569, -67.2109875 6.420335279591384, -67.2109875 -39" stroke="#527398" stroke-width="1.3" fill="none" stroke-dasharray="0 0"/></g><g class="divider"><path d="M84.9921375 -39 L84.9922375 -39 L84.9922375 78 L84.9921375 78" stroke="none" stroke-width="0" fill="#eef4fb" fill-rule="evenodd"/><path d="M84.9921375 -39 C84.99215818108146 -39, 84.99217886216292 -39, 84.9922375 -39 M84.9921375 -39 C84.99217231161515 -39, 84.9922071232303 -39, 84.9922375 -39 M84.9922375 -39 C84.9922375 -2.028695269580922, 84.9922375 34.942609460838156, 84.9922375 78 M84.9922375 -39 C84.9922375 -13.310485040489585, 84.9922375 12.37902991902083, 84.9922375 78 M84.9922375 78 C84.99220311981077 78, 84.99216873962155 78, 84.9921375 78 M84.9922375 78 C84.99220674368044 78, 84.99217598736087 78, 84.9921375 78 M84.9921375 78 C84.9921375 41.014395608659825, 84.9921375 4.02879121731965, 84.9921375 -39 M84.9921375 78 C84.9921375 42.21016763979569, 84.9921375 6.420335279591384, 84.9921375 -39" stroke="#527398" stroke-width="1.3" fill="none" stroke-dasharray="0 0"/></g><g class="divider"><path d="M-131.3359375 -39.00005 L-131.3359375 -38.99995 L131.3359375 -38.99995 L131.3359375 -39.00005" stroke="none" stroke-width="0" fill="#eef4fb" fill-rule="evenodd"/><path d="M-131.3359375 -39.00005 C-131.3359375 -39.00002931891854, -131.3359375 -39.00000863783708, -131.3359375 -38.99995 M-131.3359375 -39.00005 C-131.3359375 -39.00001518838485, -131.3359375 -38.99998037676969, -131.3359375 -38.99995 M-131.3359375 -38.99995 C-48.33318592106369 -38.99995, 34.669565657872624 -38.99995, 131.3359375 -38.99995 M-131.3359375 -38.99995 C-73.66146688243461 -38.99995, -15.986996264869234 -38.99995, 131.3359375 -38.99995 M131.3359375 -38.99995 C131.3359375 -38.999984380189225, 131.3359375 -39.00001876037845, 131.3359375 -39.00005 M131.3359375 -38.99995 C131.3359375 -38.999980756319566, 131.3359375 -39.000011512639134, 131.3359375 -39.00005 M131.3359375 -39.00005 C48.30108234203797 -39.00005, -34.733772815924056 -39.00005, -131.3359375 -39.00005 M131.3359375 -39.00005 C50.98566081632016 -39.00005, -29.364615867359674 -39.00005, -131.3359375 -39.00005" stroke="#527398" stroke-width="1.3" fill="none" stroke-dasharray="0 0"/></g></g><g class="node default" id="kiara_04d_schema_harness_mmd-entity-EVALUATION_RUN-3" data-look="classic" transform="translate(1045.140625, 582.5)"><g class="outer-path" style=""><path d="M-138 -78 L138 -78 L138 78 L-138 78" stroke="none" stroke-width="0" fill="#eef4fb"/><path d="M-138 -78 C-80.92021516822278 -78, -23.840430336445564 -78, 138 -78 M-138 -78 C-41.91994217969477 -78, 54.16011564061046 -78, 138 -78 M138 -78 C138 -28.704927026107903, 138 20.590145947784194, 138 78 M138 -78 C138 -43.747313387319444, 138 -9.494626774638888, 138 78 M138 78 C43.11067773364485 78, -51.7786445327103 78, -138 78 M138 78 C53.112557998672116 78, -31.774884002655767 78, -138 78 M-138 78 C-138 28.68586081154644, -138 -20.62827837690712, -138 -78 M-138 78 C-138 30.280223519727585, -138 -17.43955296054483, -138 -78" stroke="#527398" stroke-width="1.3" fill="none" stroke-dasharray="0 0"/></g><g style="" class="row-rect-odd"><path d="M-138 -39 L138 -39 L138 0 L-138 0" stroke="none" stroke-width="0" fill="hsl(212.3076923077, 61.9047619048%, 100%)"/><path d="M-138 -39 C-80.92021516822278 -39, -23.840430336445564 -39, 138 -39 M-138 -39 C-41.91994217969477 -39, 54.16011564061046 -39, 138 -39 M138 -39 C138 -26.676231756526974, 138 -14.352463513053952, 138 0 M138 -39 C138 -30.436828346829863, 138 -21.873656693659722, 138 0 M138 0 C43.11067773364485 0, -51.7786445327103 0, -138 0 M138 0 C53.112557998672116 0, -31.774884002655767 0, -138 0 M-138 0 C-138 -12.32853479711339, -138 -24.65706959422678, -138 -39 M-138 0 C-138 -11.929944120068104, -138 -23.859888240136208, -138 -39" stroke="#527398" stroke-width="1.3" fill="none" stroke-dasharray="0 0"/></g><g style="" class="row-rect-even"><path d="M-138 0 L138 0 L138 39 L-138 39" stroke="none" stroke-width="0" fill="hsl(212.3076923077, 61.9047619048%, 100%)"/><path d="M-138 0 C-80.92021516822278 0, -23.840430336445564 0, 138 0 M-138 0 C-41.91994217969477 0, 54.16011564061046 0, 138 0 M138 0 C138 12.323768243473024, 138 24.64753648694605, 138 39 M138 0 C138 8.563171653170139, 138 17.126343306340278, 138 39 M138 39 C43.11067773364485 39, -51.7786445327103 39, -138 39 M138 39 C53.112557998672116 39, -31.774884002655767 39, -138 39 M-138 39 C-138 26.67146520288661, -138 14.34293040577322, -138 0 M-138 39 C-138 27.070055879931896, -138 15.140111759863792, -138 0" stroke="#527398" stroke-width="1.3" fill="none" stroke-dasharray="0 0"/></g><g style="" class="row-rect-odd"><path d="M-138 39 L138 39 L138 78 L-138 78" stroke="none" stroke-width="0" fill="hsl(212.3076923077, 61.9047619048%, 100%)"/><path d="M-138 39 C-80.92021516822278 39, -23.840430336445564 39, 138 39 M-138 39 C-41.91994217969477 39, 54.16011564061046 39, 138 39 M138 39 C138 51.323768243473026, 138 63.64753648694605, 138 78 M138 39 C138 47.56317165317014, 138 56.126343306340274, 138 78 M138 78 C43.11067773364485 78, -51.7786445327103 78, -138 78 M138 78 C53.112557998672116 78, -31.774884002655767 78, -138 78 M-138 78 C-138 65.67146520288661, -138 53.34293040577322, -138 39 M-138 78 C-138 66.0700558799319, -138 54.14011175986379, -138 39" stroke="#527398" stroke-width="1.3" fill="none" stroke-dasharray="0 0"/></g><g class="label name" transform="translate(-71.2734375, -70.5)" style=""><foreignObject width="142.546875" height="24"><div xmlns="http://www.w3.org/1999/xhtml" style="display: table-cell; white-space: nowrap; line-height: 1.5; max-width: 243px; text-align: start;"><span class="nodeLabel"><p>EVALUATION_RUN</p></span></div></foreignObject></g><g class="label attribute-type" transform="translate(-125.5, -31.5)" style=""><foreignObject width="39.125" height="24"><div xmlns="http://www.w3.org/1999/xhtml" style="display: table-cell; white-space: nowrap; line-height: 1.5; max-width: 139px; text-align: start;"><span class="nodeLabel"><p>string</p></span></div></foreignObject></g><g class="label attribute-name" transform="translate(-61.375, -31.5)" style=""><foreignObject width="12.453125" height="24"><div xmlns="http://www.w3.org/1999/xhtml" style="display: table-cell; white-space: nowrap; line-height: 1.5; max-width: 112px; text-align: start;"><span class="nodeLabel"><p>id</p></span></div></foreignObject></g><g class="label attribute-keys" transform="translate(104.15625, -31.5)" style=""><foreignObject width="21.34375" height="24"><div xmlns="http://www.w3.org/1999/xhtml" style="display: table-cell; white-space: nowrap; line-height: 1.5; max-width: 121px; text-align: start;"><span class="nodeLabel"><p>PK</p></span></div></foreignObject></g><g class="label attribute-comment" transform="translate(150.5, -31.5)" style=""><foreignObject width="0" height="0"><div xmlns="http://www.w3.org/1999/xhtml" style="display: table-cell; white-space: nowrap; line-height: 1.5; max-width: 100px; text-align: start;"><span class="nodeLabel"></span></div></foreignObject></g><g class="label attribute-type" transform="translate(-125.5, 7.5)" style=""><foreignObject width="39.125" height="24"><div xmlns="http://www.w3.org/1999/xhtml" style="display: table-cell; white-space: nowrap; line-height: 1.5; max-width: 139px; text-align: start;"><span class="nodeLabel"><p>string</p></span></div></foreignObject></g><g class="label attribute-name" transform="translate(-61.375, 7.5)" style=""><foreignObject width="140.53125" height="24"><div xmlns="http://www.w3.org/1999/xhtml" style="display: table-cell; white-space: nowrap; line-height: 1.5; max-width: 241px; text-align: start;"><span class="nodeLabel"><p>frozen_fixture_hash</p></span></div></foreignObject></g><g class="label attribute-keys" transform="translate(104.15625, 7.5)" style=""><foreignObject width="0" height="0"><div xmlns="http://www.w3.org/1999/xhtml" style="display: table-cell; white-space: nowrap; line-height: 1.5; max-width: 100px; text-align: start;"><span class="nodeLabel"></span></div></foreignObject></g><g class="label attribute-comment" transform="translate(150.5, 7.5)" style=""><foreignObject width="0" height="0"><div xmlns="http://www.w3.org/1999/xhtml" style="display: table-cell; white-space: nowrap; line-height: 1.5; max-width: 100px; text-align: start;"><span class="nodeLabel"></span></div></foreignObject></g><g class="label attribute-type" transform="translate(-125.5, 46.5)" style=""><foreignObject width="39.125" height="24"><div xmlns="http://www.w3.org/1999/xhtml" style="display: table-cell; white-space: nowrap; line-height: 1.5; max-width: 139px; text-align: start;"><span class="nodeLabel"><p>string</p></span></div></foreignObject></g><g class="label attribute-name" transform="translate(-61.375, 46.5)" style=""><foreignObject width="39.125" height="24"><div xmlns="http://www.w3.org/1999/xhtml" style="display: table-cell; white-space: nowrap; line-height: 1.5; max-width: 139px; text-align: start;"><span class="nodeLabel"><p>result</p></span></div></foreignObject></g><g class="label attribute-keys" transform="translate(104.15625, 46.5)" style=""><foreignObject width="0" height="0"><div xmlns="http://www.w3.org/1999/xhtml" style="display: table-cell; white-space: nowrap; line-height: 1.5; max-width: 100px; text-align: start;"><span class="nodeLabel"></span></div></foreignObject></g><g class="label attribute-comment" transform="translate(150.5, 46.5)" style=""><foreignObject width="0" height="0"><div xmlns="http://www.w3.org/1999/xhtml" style="display: table-cell; white-space: nowrap; line-height: 1.5; max-width: 100px; text-align: start;"><span class="nodeLabel"></span></div></foreignObject></g><g class="divider"><path d="M-138 -39.00005 L-138 -38.99995 L138 -38.99995 L138 -39.00005" stroke="none" stroke-width="0" fill="#eef4fb" fill-rule="evenodd"/><path d="M-138 -39.00005 C-138 -39.00002931891854, -138 -39.00000863783708, -138 -38.99995 M-138 -39.00005 C-138 -39.00001518838485, -138 -38.99998037676969, -138 -38.99995 M-138 -38.99995 C-50.78564012311398 -38.99995, 36.42871975377204 -38.99995, 138 -38.99995 M-138 -38.99995 C-77.39909291602672 -38.99995, -16.79818583205342 -38.99995, 138 -38.99995 M138 -38.99995 C138 -38.999984380189225, 138 -39.00001876037845, 138 -39.00005 M138 -38.99995 C138 -38.999980756319566, 138 -39.000011512639134, 138 -39.00005 M138 -39.00005 C50.75190758965908 -39.00005, -36.49618482068183 -39.00005, -138 -39.00005 M138 -39.00005 C53.57270315028727 -39.00005, -30.854593699425465 -39.00005, -138 -39.00005" stroke="#527398" stroke-width="1.3" fill="none" stroke-dasharray="0 0"/></g><g class="divider"><path d="M-73.87505 -39 L-73.87495 -39 L-73.87495 78 L-73.87505 78" stroke="none" stroke-width="0" fill="#eef4fb" fill-rule="evenodd"/><path d="M-73.87505 -39 C-73.87502931891854 -39, -73.87500863783708 -39, -73.87495 -39 M-73.87505 -39 C-73.87501518838485 -39, -73.8749803767697 -39, -73.87495 -39 M-73.87495 -39 C-73.87495 -2.028695269580922, -73.87495 34.942609460838156, -73.87495 78 M-73.87495 -39 C-73.87495 -13.310485040489585, -73.87495 12.37902991902083, -73.87495 78 M-73.87495 78 C-73.87498438018923 78, -73.87501876037845 78, -73.87505 78 M-73.87495 78 C-73.87498075631956 78, -73.87501151263913 78, -73.87505 78 M-73.87505 78 C-73.87505 41.014395608659825, -73.87505 4.02879121731965, -73.87505 -39 M-73.87505 78 C-73.87505 42.21016763979569, -73.87505 6.420335279591384, -73.87505 -39" stroke="#527398" stroke-width="1.3" fill="none" stroke-dasharray="0 0"/></g><g class="divider"><path d="M91.6562 -39 L91.6563 -39 L91.6563 78 L91.6562 78" stroke="none" stroke-width="0" fill="#eef4fb" fill-rule="evenodd"/><path d="M91.6562 -39 C91.65622068108146 -39, 91.65624136216292 -39, 91.6563 -39 M91.6562 -39 C91.65623481161515 -39, 91.6562696232303 -39, 91.6563 -39 M91.6563 -39 C91.6563 -2.028695269580922, 91.6563 34.942609460838156, 91.6563 78 M91.6563 -39 C91.6563 -13.310485040489585, 91.6563 12.37902991902083, 91.6563 78 M91.6563 78 C91.65626561981077 78, 91.65623123962155 78, 91.6562 78 M91.6563 78 C91.65626924368044 78, 91.65623848736087 78, 91.6562 78 M91.6562 78 C91.6562 41.014395608659825, 91.6562 4.02879121731965, 91.6562 -39 M91.6562 78 C91.6562 42.21016763979569, 91.6562 6.420335279591384, 91.6562 -39" stroke="#527398" stroke-width="1.3" fill="none" stroke-dasharray="0 0"/></g><g class="divider"><path d="M-138 -39.00005 L-138 -38.99995 L138 -38.99995 L138 -39.00005" stroke="none" stroke-width="0" fill="#eef4fb" fill-rule="evenodd"/><path d="M-138 -39.00005 C-138 -39.00002931891854, -138 -39.00000863783708, -138 -38.99995 M-138 -39.00005 C-138 -39.00001518838485, -138 -38.99998037676969, -138 -38.99995 M-138 -38.99995 C-50.78564012311398 -38.99995, 36.42871975377204 -38.99995, 138 -38.99995 M-138 -38.99995 C-77.39909291602672 -38.99995, -16.79818583205342 -38.99995, 138 -38.99995 M138 -38.99995 C138 -38.999984380189225, 138 -39.00001876037845, 138 -39.00005 M138 -38.99995 C138 -38.999980756319566, 138 -39.000011512639134, 138 -39.00005 M138 -39.00005 C50.75190758965908 -39.00005, -36.49618482068183 -39.00005, -138 -39.00005 M138 -39.00005 C53.57270315028727 -39.00005, -30.854593699425465 -39.00005, -138 -39.00005" stroke="#527398" stroke-width="1.3" fill="none" stroke-dasharray="0 0"/></g></g><g class="node default" id="kiara_04d_schema_harness_mmd-entity-CHAMPION_POINTER-4" data-look="classic" transform="translate(596.625, 541.5)"><g class="outer-path" style=""><path d="M-137.109375 -78 L137.109375 -78 L137.109375 78 L-137.109375 78" stroke="none" stroke-width="0" fill="#eef4fb"/><path d="M-137.109375 -78 C-80.39797193174309 -78, -23.686568863486173 -78, 137.109375 -78 M-137.109375 -78 C-41.64939907459484 -78, 53.81057685081032 -78, 137.109375 -78 M137.109375 -78 C137.109375 -28.704927026107903, 137.109375 20.590145947784194, 137.109375 78 M137.109375 -78 C137.109375 -43.747313387319444, 137.109375 -9.494626774638888, 137.109375 78 M137.109375 78 C42.83244985424972 78, -51.44447529150057 78, -137.109375 78 M137.109375 78 C52.76977994093612 78, -31.569815118127764 78, -137.109375 78 M-137.109375 78 C-137.109375 28.68586081154644, -137.109375 -20.62827837690712, -137.109375 -78 M-137.109375 78 C-137.109375 30.280223519727585, -137.109375 -17.43955296054483, -137.109375 -78" stroke="#527398" stroke-width="1.3" fill="none" stroke-dasharray="0 0"/></g><g style="" class="row-rect-odd"><path d="M-137.109375 -39 L137.109375 -39 L137.109375 0 L-137.109375 0" stroke="none" stroke-width="0" fill="hsl(212.3076923077, 61.9047619048%, 100%)"/><path d="M-137.109375 -39 C-80.39797193174309 -39, -23.686568863486173 -39, 137.109375 -39 M-137.109375 -39 C-41.64939907459484 -39, 53.81057685081032 -39, 137.109375 -39 M137.109375 -39 C137.109375 -26.676231756526974, 137.109375 -14.352463513053952, 137.109375 0 M137.109375 -39 C137.109375 -30.436828346829863, 137.109375 -21.873656693659722, 137.109375 0 M137.109375 0 C42.83244985424972 0, -51.44447529150057 0, -137.109375 0 M137.109375 0 C52.76977994093612 0, -31.569815118127764 0, -137.109375 0 M-137.109375 0 C-137.109375 -12.32853479711339, -137.109375 -24.65706959422678, -137.109375 -39 M-137.109375 0 C-137.109375 -11.929944120068104, -137.109375 -23.859888240136208, -137.109375 -39" stroke="#527398" stroke-width="1.3" fill="none" stroke-dasharray="0 0"/></g><g style="" class="row-rect-even"><path d="M-137.109375 0 L137.109375 0 L137.109375 39 L-137.109375 39" stroke="none" stroke-width="0" fill="hsl(212.3076923077, 61.9047619048%, 100%)"/><path d="M-137.109375 0 C-80.39797193174309 0, -23.686568863486173 0, 137.109375 0 M-137.109375 0 C-41.64939907459484 0, 53.81057685081032 0, 137.109375 0 M137.109375 0 C137.109375 12.323768243473024, 137.109375 24.64753648694605, 137.109375 39 M137.109375 0 C137.109375 8.563171653170139, 137.109375 17.126343306340278, 137.109375 39 M137.109375 39 C42.83244985424972 39, -51.44447529150057 39, -137.109375 39 M137.109375 39 C52.76977994093612 39, -31.569815118127764 39, -137.109375 39 M-137.109375 39 C-137.109375 26.67146520288661, -137.109375 14.34293040577322, -137.109375 0 M-137.109375 39 C-137.109375 27.070055879931896, -137.109375 15.140111759863792, -137.109375 0" stroke="#527398" stroke-width="1.3" fill="none" stroke-dasharray="0 0"/></g><g style="" class="row-rect-odd"><path d="M-137.109375 39 L137.109375 39 L137.109375 78 L-137.109375 78" stroke="none" stroke-width="0" fill="hsl(212.3076923077, 61.9047619048%, 100%)"/><path d="M-137.109375 39 C-80.39797193174309 39, -23.686568863486173 39, 137.109375 39 M-137.109375 39 C-41.64939907459484 39, 53.81057685081032 39, 137.109375 39 M137.109375 39 C137.109375 51.323768243473026, 137.109375 63.64753648694605, 137.109375 78 M137.109375 39 C137.109375 47.56317165317014, 137.109375 56.126343306340274, 137.109375 78 M137.109375 78 C42.83244985424972 78, -51.44447529150057 78, -137.109375 78 M137.109375 78 C52.76977994093612 78, -31.569815118127764 78, -137.109375 78 M-137.109375 78 C-137.109375 65.67146520288661, -137.109375 53.34293040577322, -137.109375 39 M-137.109375 78 C-137.109375 66.0700558799319, -137.109375 54.14011175986379, -137.109375 39" stroke="#527398" stroke-width="1.3" fill="none" stroke-dasharray="0 0"/></g><g class="label name" transform="translate(-83.125, -70.5)" style=""><foreignObject width="166.25" height="24"><div xmlns="http://www.w3.org/1999/xhtml" style="display: table-cell; white-space: nowrap; line-height: 1.5; max-width: 266px; text-align: start;"><span class="nodeLabel"><p>CHAMPION_POINTER</p></span></div></foreignObject></g><g class="label attribute-type" transform="translate(-124.609375, -31.5)" style=""><foreignObject width="39.125" height="24"><div xmlns="http://www.w3.org/1999/xhtml" style="display: table-cell; white-space: nowrap; line-height: 1.5; max-width: 139px; text-align: start;"><span class="nodeLabel"><p>string</p></span></div></foreignObject></g><g class="label attribute-name" transform="translate(-60.484375, -31.5)" style=""><foreignObject width="65.84375" height="24"><div xmlns="http://www.w3.org/1999/xhtml" style="display: table-cell; white-space: nowrap; line-height: 1.5; max-width: 166px; text-align: start;"><span class="nodeLabel"><p>tenant_id</p></span></div></foreignObject></g><g class="label attribute-keys" transform="translate(103.265625, -31.5)" style=""><foreignObject width="21.34375" height="24"><div xmlns="http://www.w3.org/1999/xhtml" style="display: table-cell; white-space: nowrap; line-height: 1.5; max-width: 121px; text-align: start;"><span class="nodeLabel"><p>PK</p></span></div></foreignObject></g><g class="label attribute-comment" transform="translate(149.609375, -31.5)" style=""><foreignObject width="0" height="0"><div xmlns="http://www.w3.org/1999/xhtml" style="display: table-cell; white-space: nowrap; line-height: 1.5; max-width: 100px; text-align: start;"><span class="nodeLabel"></span></div></foreignObject></g><g class="label attribute-type" transform="translate(-124.609375, 7.5)" style=""><foreignObject width="39.125" height="24"><div xmlns="http://www.w3.org/1999/xhtml" style="display: table-cell; white-space: nowrap; line-height: 1.5; max-width: 139px; text-align: start;"><span class="nodeLabel"><p>string</p></span></div></foreignObject></g><g class="label attribute-name" transform="translate(-60.484375, 7.5)" style=""><foreignObject width="138.75" height="24"><div xmlns="http://www.w3.org/1999/xhtml" style="display: table-cell; white-space: nowrap; line-height: 1.5; max-width: 239px; text-align: start;"><span class="nodeLabel"><p>harness_version_id</p></span></div></foreignObject></g><g class="label attribute-keys" transform="translate(103.265625, 7.5)" style=""><foreignObject width="20.453125" height="24"><div xmlns="http://www.w3.org/1999/xhtml" style="display: table-cell; white-space: nowrap; line-height: 1.5; max-width: 120px; text-align: start;"><span class="nodeLabel"><p>FK</p></span></div></foreignObject></g><g class="label attribute-comment" transform="translate(149.609375, 7.5)" style=""><foreignObject width="0" height="0"><div xmlns="http://www.w3.org/1999/xhtml" style="display: table-cell; white-space: nowrap; line-height: 1.5; max-width: 100px; text-align: start;"><span class="nodeLabel"></span></div></foreignObject></g><g class="label attribute-type" transform="translate(-124.609375, 46.5)" style=""><foreignObject width="16.90625" height="24"><div xmlns="http://www.w3.org/1999/xhtml" style="display: table-cell; white-space: nowrap; line-height: 1.5; max-width: 117px; text-align: start;"><span class="nodeLabel"><p>int</p></span></div></foreignObject></g><g class="label attribute-name" transform="translate(-60.484375, 46.5)" style=""><foreignObject width="51.578125" height="24"><div xmlns="http://www.w3.org/1999/xhtml" style="display: table-cell; white-space: nowrap; line-height: 1.5; max-width: 152px; text-align: start;"><span class="nodeLabel"><p>version</p></span></div></foreignObject></g><g class="label attribute-keys" transform="translate(103.265625, 46.5)" style=""><foreignObject width="0" height="0"><div xmlns="http://www.w3.org/1999/xhtml" style="display: table-cell; white-space: nowrap; line-height: 1.5; max-width: 100px; text-align: start;"><span class="nodeLabel"></span></div></foreignObject></g><g class="label attribute-comment" transform="translate(149.609375, 46.5)" style=""><foreignObject width="0" height="0"><div xmlns="http://www.w3.org/1999/xhtml" style="display: table-cell; white-space: nowrap; line-height: 1.5; max-width: 100px; text-align: start;"><span class="nodeLabel"></span></div></foreignObject></g><g class="divider"><path d="M-137.109375 -39.00005 L-137.109375 -38.99995 L137.109375 -38.99995 L137.109375 -39.00005" stroke="none" stroke-width="0" fill="#eef4fb" fill-rule="evenodd"/><path d="M-137.109375 -39.00005 C-137.109375 -39.00002931891854, -137.109375 -39.00000863783708, -137.109375 -38.99995 M-137.109375 -39.00005 C-137.109375 -39.00001518838485, -137.109375 -38.99998037676969, -137.109375 -38.99995 M-137.109375 -38.99995 C-50.45787953808029 -38.99995, 36.19361592383942 -38.99995, 137.109375 -38.99995 M-137.109375 -38.99995 C-76.89957431364746 -38.99995, -16.689773627294926 -38.99995, 137.109375 -38.99995 M137.109375 -38.99995 C137.109375 -38.999984380189225, 137.109375 -39.00001876037845, 137.109375 -39.00005 M137.109375 -38.99995 C137.109375 -38.999980756319566, 137.109375 -39.000011512639134, 137.109375 -39.00005 M137.109375 -39.00005 C50.42436470779647 -39.00005, -36.26064558440706 -39.00005, -137.109375 -39.00005 M137.109375 -39.00005 C53.22695540577115 -39.00005, -30.6554641884577 -39.00005, -137.109375 -39.00005" stroke="#527398" stroke-width="1.3" fill="none" stroke-dasharray="0 0"/></g><g class="divider"><path d="M-72.984425 -39 L-72.984325 -39 L-72.984325 78 L-72.984425 78" stroke="none" stroke-width="0" fill="#eef4fb" fill-rule="evenodd"/><path d="M-72.984425 -39 C-72.98440431891854 -39, -72.98438363783708 -39, -72.984325 -39 M-72.984425 -39 C-72.98439018838485 -39, -72.9843553767697 -39, -72.984325 -39 M-72.984325 -39 C-72.984325 -2.028695269580922, -72.984325 34.942609460838156, -72.984325 78 M-72.984325 -39 C-72.984325 -13.310485040489585, -72.984325 12.37902991902083, -72.984325 78 M-72.984325 78 C-72.98435938018923 78, -72.98439376037845 78, -72.984425 78 M-72.984325 78 C-72.98435575631956 78, -72.98438651263913 78, -72.984425 78 M-72.984425 78 C-72.984425 41.014395608659825, -72.984425 4.02879121731965, -72.984425 -39 M-72.984425 78 C-72.984425 42.21016763979569, -72.984425 6.420335279591384, -72.984425 -39" stroke="#527398" stroke-width="1.3" fill="none" stroke-dasharray="0 0"/></g><g class="divider"><path d="M90.765575 -39 L90.765675 -39 L90.765675 78 L90.765575 78" stroke="none" stroke-width="0" fill="#eef4fb" fill-rule="evenodd"/><path d="M90.765575 -39 C90.76559568108146 -39, 90.76561636216292 -39, 90.765675 -39 M90.765575 -39 C90.76560981161515 -39, 90.7656446232303 -39, 90.765675 -39 M90.765675 -39 C90.765675 -2.028695269580922, 90.765675 34.942609460838156, 90.765675 78 M90.765675 -39 C90.765675 -13.310485040489585, 90.765675 12.37902991902083, 90.765675 78 M90.765675 78 C90.76564061981077 78, 90.76560623962155 78, 90.765575 78 M90.765675 78 C90.76564424368044 78, 90.76561348736087 78, 90.765575 78 M90.765575 78 C90.765575 41.014395608659825, 90.765575 4.02879121731965, 90.765575 -39 M90.765575 78 C90.765575 42.21016763979569, 90.765575 6.420335279591384, 90.765575 -39" stroke="#527398" stroke-width="1.3" fill="none" stroke-dasharray="0 0"/></g><g class="divider"><path d="M-137.109375 -39.00005 L-137.109375 -38.99995 L137.109375 -38.99995 L137.109375 -39.00005" stroke="none" stroke-width="0" fill="#eef4fb" fill-rule="evenodd"/><path d="M-137.109375 -39.00005 C-137.109375 -39.00002931891854, -137.109375 -39.00000863783708, -137.109375 -38.99995 M-137.109375 -39.00005 C-137.109375 -39.00001518838485, -137.109375 -38.99998037676969, -137.109375 -38.99995 M-137.109375 -38.99995 C-50.45787953808029 -38.99995, 36.19361592383942 -38.99995, 137.109375 -38.99995 M-137.109375 -38.99995 C-76.89957431364746 -38.99995, -16.689773627294926 -38.99995, 137.109375 -38.99995 M137.109375 -38.99995 C137.109375 -38.999984380189225, 137.109375 -39.00001876037845, 137.109375 -39.00005 M137.109375 -38.99995 C137.109375 -38.999980756319566, 137.109375 -39.000011512639134, 137.109375 -39.00005 M137.109375 -39.00005 C50.42436470779647 -39.00005, -36.26064558440706 -39.00005, -137.109375 -39.00005 M137.109375 -39.00005 C53.22695540577115 -39.00005, -30.6554641884577 -39.00005, -137.109375 -39.00005" stroke="#527398" stroke-width="1.3" fill="none" stroke-dasharray="0 0"/></g></g></g></g></g><defs><filter id="kiara_04d_schema_harness_mmd-drop-shadow" height="130%" width="130%"><feDropShadow dx="4" dy="4" stdDeviation="0" flood-opacity="0.06" flood-color="#000000"/></filter></defs><defs><filter id="kiara_04d_schema_harness_mmd-drop-shadow-small" height="150%" width="150%"><feDropShadow dx="2" dy="2" stdDeviation="0" flood-opacity="0.06" flood-color="#000000"/></filter></defs><linearGradient id="kiara_04d_schema_harness_mmd-gradient" gradientUnits="objectBoundingBox" x1="0%" y1="0%" x2="100%" y2="0%"><stop offset="0%" stop-color="#527398" stop-opacity="1"/><stop offset="100%" stop-color="hsl(210, 0%, 86.0784313725%)" stop-opacity="1"/></linearGradient><text text-anchor="middle" x="595.5703125" y="-25" class="erDiagramTitleText">Logical ER — harness versions and evaluation (storage reconciliation pending)</text><g><text x="12" y="692.5" font-family="Arial, sans-serif" font-size="14" fill="#273c51">Crow’s foot = many; circle = optional; bar = one. Rxx identifies a logical relationship in schema-mapping.json.</text><text x="12" y="713.5" font-family="Arial, sans-serif" font-size="14" fill="#273c51">Logical keys are illustrative: embedded facts, clauses and attempts are not separate collections. T04 owns physical validation.</text><text x="12" y="734.5" font-family="Arial, sans-serif" font-size="14" fill="#273c51">Design only. Physical mapping and cross-owner differences remain provisional until T17 contract freeze.</text></g></svg>